<svg width="84" height="38" viewBox="0 0 84 38" fill="none" xmlns="http://www.w3.org/2000/svg">
<g id="Company logo" clip-path="url(#clip0_1_1918)">
<path id="Vector" fill-rule="evenodd" clip-rule="evenodd" d="M15.5437 9.71729H2.94269C2.42214 9.71728 1.92287 9.93347 1.55455 10.3183C1.18623 10.7032 0.978966 11.2253 0.978295 11.77V24.9335C0.977044 25.2035 1.02668 25.4712 1.12436 25.7212C1.22205 25.9712 1.36587 26.1986 1.5476 26.3904C1.72933 26.5822 1.94541 26.7347 2.18348 26.8391C2.42156 26.9434 2.67696 26.9977 2.93509 26.9987H15.5453C15.8033 26.9984 16.0587 26.945 16.297 26.8413C16.5352 26.7377 16.7517 26.586 16.9339 26.3949C17.1161 26.2037 17.2605 25.9769 17.3589 25.7273C17.4574 25.4778 17.5078 25.2104 17.5074 24.9404V11.77C17.5068 11.2254 17.2996 10.7034 16.9314 10.3186C16.5632 9.93372 16.0641 9.71746 15.5437 9.71729V9.71729ZM8.10716 22.1647C8.10641 22.3469 8.03653 22.5213 7.91288 22.6497C7.78924 22.778 7.62196 22.8496 7.44782 22.8489H4.69132C4.51841 22.8481 4.35285 22.7756 4.23084 22.6474C4.10884 22.5192 4.0403 22.3456 4.04022 22.1647V13.5903C4.04014 13.4093 4.10862 13.2357 4.23066 13.1074C4.3527 12.9792 4.51835 12.9068 4.69132 12.9061H7.44529C7.61852 12.9067 7.78447 12.9791 7.90696 13.1072C8.02946 13.2354 8.09857 13.409 8.09924 13.5903L8.10716 22.1647ZM14.4607 18.2277C14.4607 18.4092 14.3918 18.5833 14.2692 18.7117C14.1466 18.84 13.9802 18.9122 13.8068 18.9123H11.0452C10.8719 18.9116 10.7059 18.8392 10.5834 18.711C10.4609 18.5828 10.3918 18.409 10.3912 18.2277V13.5903C10.3919 13.409 10.461 13.2354 10.5835 13.1072C10.706 12.9791 10.872 12.9067 11.0452 12.9061H13.7988C13.9719 12.9067 14.1376 12.979 14.2597 13.1073C14.3818 13.2356 14.4504 13.4092 14.4503 13.5903L14.4607 18.2277Z" fill="#C1C1C1"/>
<path id="Vector_2" d="M35.2254 10.9836V14.3256H31.4417V26.9991H27.793V14.3256H24.0093V10.9836H35.2254Z" fill="#C1C1C1"/>
<path id="Vector_3" d="M39.8685 26.9986H36.4955V14.5319H39.8685V16.9188C40.5095 15.2371 41.5342 14.2369 43.3585 14.3589V18.0519C40.9753 17.858 39.8685 18.4673 39.8685 20.4649V26.9986Z" fill="#C1C1C1"/>
<path id="Vector_4" d="M61.7867 27.0959C59.5758 27.0959 58.1855 25.9876 58.1855 23.3668V9.71729H61.5827V22.8781C61.5827 23.6343 62.058 23.9031 62.6419 23.9031C62.8099 23.9065 62.978 23.8981 63.145 23.8779V26.9503C62.7008 27.0641 62.2437 27.1131 61.7867 27.0959Z" fill="#C1C1C1"/>
<path id="Vector_5" d="M68.8735 27.0959C66.6626 27.0959 65.2698 25.9876 65.2698 23.3668V9.71729H68.6669V22.8781C68.6669 23.6343 69.146 23.9031 69.7391 23.9031C69.9063 23.9068 70.0736 23.8984 70.2397 23.8779V26.9503C69.793 27.0651 69.3331 27.1141 68.8735 27.0959Z" fill="#C1C1C1"/>
<path id="Vector_6" d="M71.8671 20.76C71.8671 16.9092 73.9854 14.2744 77.6335 14.2744C81.2816 14.2744 83.3559 16.9006 83.3559 20.76C83.3559 24.6194 81.2588 27.2907 77.6342 27.2907C74.0095 27.2907 71.8671 24.5856 71.8671 20.76ZM75.1742 20.76C75.1742 22.6353 75.9264 24.1232 77.6342 24.1232C79.3419 24.1232 80.0516 22.6353 80.0516 20.76C80.0516 18.8847 79.3229 17.4353 77.6342 17.4353C75.9454 17.4353 75.1742 18.8817 75.1742 20.76Z" fill="#C1C1C1"/>
<path id="Vector_7" d="M47.9122 21.8875C48.8568 21.996 49.806 22.0542 50.7562 22.0619C53.3403 22.0619 55.522 21.3362 55.522 18.7183C55.522 16.1776 53.2795 14.2688 50.5813 14.2688C46.9487 14.2688 44.6212 17.0256 44.6212 20.8764C44.6212 24.874 46.6281 27.248 51.1639 27.248C52.5095 27.2595 53.8454 27.0097 55.1038 26.5114V23.5248C53.9388 23.9153 52.628 24.3032 51.2831 24.3032C49.4771 24.3035 48.2183 23.6826 47.9122 21.8875ZM50.5125 16.9895C51.4684 16.9895 52.2361 17.6681 52.2361 18.5963C52.2361 19.7897 51.0321 20.1643 49.6441 20.1643C49.0535 20.1613 48.4641 20.1123 47.8805 20.0175C47.9246 19.4353 48.0842 18.8692 48.3491 18.3553C48.5619 17.9481 48.8744 17.6076 49.2547 17.3687C49.6349 17.1298 50.069 17.0012 50.5125 16.9961V16.9895Z" fill="#C1C1C1"/>
</g>
<defs>
<clipPath id="clip0_1_1918">
<rect width="82.5198" height="36.6755" fill="white" transform="translate(0.978271 0.54834)"/>
</clipPath>
</defs>
</svg>
