<svg width="116" height="35" viewBox="0 0 116 35" fill="none" xmlns="http://www.w3.org/2000/svg">
<g id="Company logo" clip-path="url(#clip0_1_1920)">
<g id="Vector">
<path d="M32.5083 10.8004H37.8983C41.3346 10.8004 44.1733 12.7952 44.1733 17.3498V18.3069C44.1733 22.8961 41.5185 24.9601 38.0017 24.9601H32.5083V10.8004ZM35.5194 13.3718V22.3772H37.8294C39.7831 22.3772 41.0932 21.0973 41.0932 18.2492V17.4997C41.0932 14.6517 39.7141 13.3718 37.7259 13.3718H35.5194ZM45.7707 13.5101H48.1842L48.5749 16.1737C49.0346 14.3634 50.2069 13.3948 52.333 13.3948H53.08V16.4504H51.8388C49.3909 16.4504 48.7933 17.3037 48.7933 19.7251V24.9947H45.8167V13.5101H45.7707ZM53.6776 19.483V19.1601C53.6776 15.3204 56.1255 13.2219 59.4584 13.2219C62.8602 13.2219 65.2391 15.3204 65.2391 19.1601V19.483C65.2391 23.2535 62.9291 25.2829 59.4584 25.2829C55.7693 25.2483 53.6776 23.2651 53.6776 19.483ZM62.1936 19.4484V19.1601C62.1936 17.027 61.1248 15.7471 59.4239 15.7471C57.7575 15.7471 56.6542 16.9232 56.6542 19.1601V19.4484C56.6542 21.5124 57.723 22.6885 59.4239 22.6885C61.1248 22.6539 62.1936 21.5124 62.1936 19.4484ZM66.8021 13.5101H69.2845L69.5718 15.6779C70.1694 14.225 71.4451 13.2219 73.3299 13.2219C76.2375 13.2219 78.1568 15.3204 78.1568 19.2063V19.5291C78.1568 23.2996 76.0307 25.2945 73.3299 25.2945C71.5256 25.2945 70.2844 24.4758 69.6753 23.1613V28.9612H66.7677L66.8021 13.5101ZM75.1342 19.4484V19.1947C75.1342 16.9117 73.962 15.7817 72.399 15.7817C70.7326 15.7817 69.6293 17.0616 69.6293 19.1947V19.4138C69.6293 21.4432 70.6981 22.7231 72.3645 22.7231C74.0769 22.6885 75.1342 21.5931 75.1342 19.4484ZM82.5584 22.873L82.3056 24.9716H79.7543V9.67041H82.6619V15.5395C83.3055 14.0405 84.5811 13.2219 86.3855 13.2219C89.1207 13.2564 91.1434 15.1475 91.1434 18.9526V19.31C91.1434 23.1152 89.2241 25.2945 86.3165 25.2945C84.3973 25.2483 83.1561 24.3605 82.5584 22.873ZM88.0864 19.31V19.0218C88.0864 16.9232 86.9486 15.7471 85.3511 15.7471C83.7192 15.7471 82.5814 17.0616 82.5814 19.0564V19.31C82.5814 21.4432 83.6847 22.6885 85.3167 22.6885C87.0635 22.6885 88.0864 21.5931 88.0864 19.31ZM92.4191 19.483V19.1601C92.4191 15.3204 94.867 13.2219 98.1998 13.2219C101.602 13.2219 103.981 15.3204 103.981 19.1601V19.483C103.981 23.2535 101.636 25.2829 98.1998 25.2829C94.5107 25.2483 92.4191 23.2651 92.4191 19.483ZM100.958 19.4484V19.1601C100.958 17.027 99.8892 15.7471 98.1883 15.7471C96.5219 15.7471 95.4186 16.9232 95.4186 19.1601V19.4484C95.4186 21.5124 96.4874 22.6885 98.1883 22.6885C99.9007 22.6539 100.958 21.5124 100.958 19.4484ZM107.877 19.0218L103.866 13.5101H107.302L109.612 16.9578L111.956 13.5101H115.358L111.29 18.9872L115.577 24.9716H112.209L109.589 21.1665L107.038 24.9716H103.521L107.877 19.0218Z" fill="#C1C1C1"/>
</g>
<path id="Vector_2" d="M13.9823 10.8003L7.31657 15.0666L13.9823 19.333L7.31657 23.5993L0.650879 19.3099L7.31657 15.0436L0.650879 10.8003L7.31657 6.53394L13.9823 10.8003ZM7.28209 24.9715L13.9478 20.7051L20.6135 24.9715L13.9478 29.2378L7.28209 24.9715ZM13.9823 19.3099L20.6479 15.0436L13.9823 10.8003L20.6135 6.53394L27.2792 10.8003L20.6135 15.0666L27.2792 19.333L20.6135 23.5993L13.9823 19.3099Z" fill="#C1C1C1"/>
</g>
<defs>
<clipPath id="clip0_1_1920">
<rect width="115.266" height="34.0558" fill="white" transform="translate(0.650879 0.858154)"/>
</clipPath>
</defs>
</svg>
