<svg width="151" height="38" viewBox="0 0 151 38" fill="none" xmlns="http://www.w3.org/2000/svg">
<g id="Company logo" clip-path="url(#clip0_1_1921)">
<g id="Vector">
<path d="M16.3762 22.2037C16.434 22.3027 16.4539 22.4203 16.4321 22.5334C16.2281 23.4867 15.7318 24.3474 15.0163 24.9887C14.9771 25.0193 14.9441 25.0575 14.9192 25.1011C14.9102 25.1211 14.9056 25.1428 14.9056 25.1648C14.9056 25.1868 14.9102 25.2085 14.9192 25.2285C14.9335 25.2456 14.9515 25.259 14.9717 25.2677C14.992 25.2764 15.0139 25.2801 15.0358 25.2785C15.1394 25.2501 15.2395 25.2098 15.3344 25.1586C15.7541 24.9134 16.1249 24.5888 16.4272 24.2019C16.6094 23.9746 16.7891 23.7473 16.9615 23.5125C17.2862 23.0488 17.5265 22.5284 17.6707 21.9765C17.8018 21.5294 17.9135 21.0773 18.0495 20.6302C18.105 20.4662 18.1724 20.3068 18.2511 20.1531C18.2827 20.1058 18.3194 20.0623 18.3603 20.0233H18.3943C18.4283 20.1406 18.4696 20.253 18.4939 20.3729C18.5574 20.75 18.5664 21.1346 18.5206 21.5144C18.4702 22.0087 18.3718 22.4965 18.2268 22.9706C18.1252 23.2619 17.9881 23.5389 17.8188 23.7948C17.3932 24.5162 16.8907 25.1864 16.3204 25.793C15.9003 26.2102 15.4461 26.5896 14.9629 26.9269C14.9276 26.9455 14.8956 26.97 14.8682 26.9994C14.8399 27.0344 14.8252 27.0788 14.8269 27.1243C14.837 27.1446 14.8519 27.162 14.87 27.1751C14.8882 27.1882 14.9093 27.1964 14.9313 27.1992C15.0329 27.1985 15.134 27.1851 15.2324 27.1592C15.6811 27.0262 16.1008 26.8058 16.4685 26.5098C17.4971 25.7299 18.3324 24.7116 18.9067 23.5375C19.2727 22.7715 19.51 21.9473 19.6086 21.0997C19.6677 20.5647 19.6734 20.0249 19.6256 19.4887C19.5839 19.214 19.5921 18.9336 19.6498 18.662C19.6651 18.5997 19.6871 18.5394 19.7154 18.4821C19.781 18.3522 19.8757 18.3448 19.9388 18.4821C20.0052 18.6121 20.0543 18.7508 20.0846 18.8943C20.2179 19.5813 20.2596 20.2838 20.2084 20.9824C20.1141 22.1173 19.8367 23.2282 19.3876 24.2694C18.9327 25.3414 18.2497 26.2948 17.3889 27.0593C17.1096 27.3091 16.8425 27.5589 16.5535 27.7937C16.2065 28.0532 15.8346 28.2759 15.4437 28.458C14.5813 28.8987 13.6634 29.214 12.7165 29.3947C12.1362 29.4983 11.5468 29.5385 10.9583 29.5146C10.6693 29.5146 10.3779 29.4946 10.0889 29.4796C9.43557 29.4424 8.79097 29.3078 8.17523 29.08C7.28362 28.7609 6.42663 28.3473 5.61806 27.8461C4.6751 27.2515 3.87088 26.4508 3.26242 25.5007C2.96204 25.054 2.70038 24.5809 2.48045 24.087C2.46924 24.0577 2.4512 24.0317 2.42791 24.0112C2.40462 23.9908 2.37679 23.9764 2.34688 23.9697C2.18719 23.9288 2.03862 23.8511 1.9124 23.7425C1.78618 23.6339 1.68563 23.4972 1.61834 23.3427C1.43826 22.8904 1.29846 22.4223 1.20064 21.944C1.02266 21.1719 0.927383 20.3821 0.916504 19.5887C0.923798 19.0863 0.968451 18.5853 1.05007 18.09C1.14225 17.417 1.3051 16.7562 1.53577 16.1193C1.73977 15.5619 2.0265 15.0403 2.38574 14.5732C2.59459 14.3035 2.76701 14.0012 2.971 13.7265C4.26567 11.9666 6.11925 10.7292 8.20924 10.2297C8.61236 10.1298 9.01553 10.0249 9.42351 9.94743C9.78775 9.87749 10.152 9.83253 10.526 9.79756C10.9583 9.7576 11.3906 9.72263 11.8253 9.71764C13.5692 9.69266 15.2776 10.226 16.7138 11.2437C16.8775 11.3456 17.025 11.4728 17.1509 11.6209C17.244 11.7375 17.3059 11.8769 17.3307 12.0255C17.3403 12.0605 17.3597 12.0918 17.3865 12.1155C17.7289 12.4551 18.0932 12.7773 18.4089 13.142C18.9106 13.7058 19.2737 14.385 19.4677 15.1227C19.5567 15.4207 19.5876 15.7337 19.5589 16.044C19.5301 16.3543 19.4422 16.6557 19.3002 16.9311C19.0626 17.3423 18.7286 17.6859 18.3288 17.9302C17.8839 18.2415 17.3502 18.3901 16.8134 18.3522C16.3115 18.3287 15.8351 18.1183 15.4729 17.7603C15.0923 17.3535 14.6867 16.9722 14.2586 16.6188C13.9769 16.399 13.6855 16.1918 13.3917 15.9944C13.0364 15.7749 12.6429 15.6289 12.2333 15.5648C11.7673 15.4771 11.2927 15.4478 10.8199 15.4774C9.78619 15.4976 8.78605 15.8583 7.96638 16.5065C7.35213 16.9838 6.84657 17.5932 6.48503 18.2923C6.28028 18.7165 6.15115 19.175 6.10375 19.6461C6.06422 19.9367 6.04151 20.2294 6.03576 20.5228C6.05867 21.359 6.27069 22.1783 6.65503 22.9156C6.939 23.4875 7.31692 24.0046 7.77211 24.4442C8.1955 24.8355 8.66456 25.1711 9.16853 25.4433C9.74209 25.7631 10.3755 25.953 11.0263 26.0003C11.8809 26.0921 12.7441 25.9588 13.5349 25.6131C13.9139 25.4299 14.2629 25.1872 14.5695 24.8938C15.0989 24.4255 15.543 23.8638 15.8809 23.2353C16.0072 23.008 16.0946 22.7582 16.2014 22.5185C16.233 22.446 16.2694 22.3736 16.3058 22.3037C16.3281 22.2698 16.3542 22.2388 16.3836 22.2113" fill="#C1C1C1"/>
<path d="M143.559 18.3972C145.307 18.3972 146.473 19.736 146.473 21.7142C146.473 23.6924 145.307 25.0112 143.559 25.0112C141.81 25.0112 140.625 23.6924 140.625 21.6942C140.625 19.696 141.79 18.3972 143.559 18.3972ZM92.366 18.1974C93.7261 18.1974 94.6195 18.9767 94.8337 20.2155H89.9182C90.1318 18.9667 91.0257 18.1974 92.366 18.1974ZM48.3036 23.0729C48.3036 24.2918 47.6042 25.0112 46.3608 25.0112C45.1174 25.0112 44.3792 24.2918 44.3792 23.0729V16.2392C44.3792 16.1729 44.3536 16.1094 44.308 16.0625C44.2625 16.0157 44.2007 15.9894 44.1363 15.9894H41.6107C41.5463 15.9894 41.4845 16.0157 41.439 16.0625C41.3935 16.1094 41.3678 16.1729 41.3678 16.2392V23.1928C41.3678 26.2301 43.0969 27.7487 45.2728 27.7487C46.8271 27.7487 47.8762 26.7696 48.323 25.2909V27.1892C48.3265 27.2543 48.3532 27.3158 48.398 27.3618C48.4428 27.4079 48.5026 27.4353 48.5659 27.439H51.1109C51.1753 27.439 51.2371 27.4126 51.2827 27.3658C51.3282 27.319 51.3538 27.2554 51.3538 27.1892V16.2392C51.3538 16.1729 51.3282 16.1094 51.2827 16.0625C51.2371 16.0157 51.1753 15.9894 51.1109 15.9894H48.5562C48.4917 15.9894 48.43 16.0157 48.3845 16.0625C48.3389 16.1094 48.3133 16.1729 48.3133 16.2392L48.3036 23.0729ZM74.4535 23.0729C74.4535 24.2918 73.7539 25.0112 72.5108 25.0112C71.2671 25.0112 70.5291 24.2918 70.5291 23.0729V16.2392C70.5291 16.1729 70.5033 16.1094 70.4577 16.0625C70.4127 16.0157 70.3509 15.9894 70.2861 15.9894H67.7609C67.6961 15.9894 67.6343 16.0157 67.5887 16.0625C67.5431 16.1094 67.5179 16.1729 67.5179 16.2392V23.1928C67.5179 26.2301 69.247 27.7487 71.4231 27.7487C72.977 27.7487 74.0263 26.7696 74.4727 25.2909V27.1892C74.4763 27.2543 74.5033 27.3158 74.5483 27.3618C74.5927 27.4079 74.6527 27.4353 74.7157 27.439H77.2607C77.3255 27.439 77.3873 27.4126 77.4329 27.3658C77.4779 27.319 77.5037 27.2554 77.5037 27.1892V16.2392C77.5037 16.1729 77.4779 16.1094 77.4329 16.0625C77.3873 16.0157 77.3255 15.9894 77.2607 15.9894H74.7061C74.6419 15.9894 74.5801 16.0157 74.5345 16.0625C74.4889 16.1094 74.4631 16.1729 74.4631 16.2392L74.4535 23.0729ZM79.9906 27.1892C79.9906 27.2554 80.0164 27.319 80.0614 27.3658C80.107 27.4126 80.1688 27.439 80.2335 27.439H82.7396C82.8038 27.439 82.8656 27.4126 82.9112 27.3658C82.9568 27.319 82.9826 27.2554 82.9826 27.1892V20.9149C82.9826 19.3363 83.9539 19.0366 85.314 19.0366H86.3238C86.3886 19.0366 86.4504 19.0103 86.496 18.9635C86.5416 18.9167 86.5668 18.8531 86.5668 18.7868V16.2392C86.5668 16.1729 86.5416 16.1094 86.496 16.0625C86.4504 16.0157 86.3886 15.9894 86.3238 15.9894H86.0814C84.4495 15.9894 83.4391 16.7687 82.973 18.667V16.2492C82.973 16.1829 82.9472 16.1194 82.9016 16.0725C82.856 16.0257 82.7942 15.9994 82.73 15.9994H80.2239C80.1591 15.9994 80.0974 16.0257 80.0518 16.0725C80.0062 16.1194 79.981 16.1829 79.981 16.2492L79.9906 27.1892ZM119.021 27.1892C119.021 27.2554 119.047 27.319 119.093 27.3658C119.138 27.4126 119.199 27.439 119.264 27.439H121.789C121.854 27.439 121.916 27.4126 121.962 27.3658C122.007 27.319 122.032 27.2554 122.032 27.1892V20.2155C122.032 19.0966 122.635 18.3972 123.781 18.3972C124.927 18.3972 125.569 19.0966 125.569 20.2155V27.1892C125.569 27.2554 125.594 27.319 125.639 27.3658C125.685 27.4126 125.747 27.439 125.811 27.439H128.356C128.421 27.439 128.483 27.4126 128.528 27.3658C128.574 27.319 128.599 27.2554 128.599 27.1892V20.2155C128.599 19.0966 129.221 18.3972 130.348 18.3972C131.475 18.3972 132.135 19.0966 132.135 20.2155V27.1892C132.138 27.2543 132.165 27.3158 132.21 27.3618C132.255 27.4079 132.315 27.4353 132.378 27.439H134.903C134.968 27.439 135.029 27.4126 135.075 27.3658C135.121 27.319 135.146 27.2554 135.146 27.1892V20.1156C135.146 17.1583 133.446 15.6597 131.28 15.6597C129.454 15.6597 128.522 16.8786 128.036 18.4072C127.899 17.6447 127.509 16.9544 126.934 16.4536C126.359 15.9528 125.632 15.6722 124.879 15.6597C123.286 15.6597 122.567 16.6588 122.023 18.1374V16.2392C122.023 16.1729 121.997 16.1094 121.951 16.0625C121.906 16.0157 121.845 15.9894 121.78 15.9894H119.255C119.19 15.9894 119.128 16.0157 119.082 16.0625C119.037 16.1094 119.012 16.1729 119.012 16.2392L119.021 27.1892ZM149.698 21.7142C149.698 18.3572 147.774 15.6597 144.685 15.6597C142.665 15.6597 141.111 16.7587 140.625 18.3173V16.2392C140.625 16.1729 140.6 16.1094 140.554 16.0625C140.508 16.0157 140.447 15.9894 140.382 15.9894H137.847C137.783 15.9894 137.721 16.0157 137.675 16.0625C137.63 16.1094 137.604 16.1729 137.604 16.2392V31.6252C137.604 31.6914 137.63 31.7549 137.675 31.8018C137.721 31.8486 137.783 31.8749 137.847 31.8749H140.392C140.456 31.8749 140.518 31.8486 140.564 31.8018C140.609 31.7549 140.635 31.6914 140.635 31.6252V25.1311C141.12 26.6897 142.675 27.7687 144.695 27.7687C147.784 27.7687 149.708 25.0911 149.708 21.7142H149.698ZM107.617 21.0398L109.577 15.5998L111.541 21.0398H107.617ZM97.9031 21.7192C97.9031 18.3023 95.9214 15.5248 92.3468 15.5248C88.9858 15.5248 86.7906 18.3023 86.7906 21.7192C86.7906 25.256 89.2384 27.8936 92.9684 27.8936C94.9891 27.8936 96.7181 26.9744 97.5341 25.7555C97.5551 25.727 97.5707 25.6943 97.5791 25.6595C97.5881 25.6246 97.5899 25.5883 97.5839 25.5528C97.5785 25.5172 97.5665 25.4832 97.5479 25.4528C97.5287 25.4224 97.5047 25.3962 97.4759 25.3758L95.7756 23.8173C95.7522 23.7959 95.7246 23.78 95.6946 23.7703C95.6646 23.7607 95.6328 23.7577 95.6016 23.7614C95.571 23.7652 95.5404 23.7757 95.514 23.7922C95.487 23.8087 95.4636 23.8309 95.4456 23.8572C95.1552 24.288 94.7653 24.6378 94.3105 24.875C93.8563 25.1122 93.3518 25.2294 92.8418 25.216C91.4043 25.216 90.0832 24.5166 89.8888 22.5984H97.6601C97.6931 22.6015 97.7255 22.5971 97.7567 22.5856C97.7873 22.5741 97.8155 22.5559 97.8383 22.5321C97.8617 22.5082 97.8797 22.4794 97.8905 22.4477C97.9019 22.416 97.9061 22.3822 97.9031 22.3486V21.7192ZM58.3187 18.4222C58.3187 18.4884 58.3443 18.552 58.3898 18.5988C58.4354 18.6456 58.4971 18.6719 58.5615 18.6719H60.1935V24.0371C60.1935 26.1951 61.2621 27.454 63.4964 27.454H65.5752C65.6394 27.454 65.7012 27.4276 65.7468 27.3808C65.7924 27.334 65.8176 27.2704 65.8176 27.2042V24.9562C65.8206 24.9226 65.8164 24.8888 65.8056 24.8571C65.7942 24.8255 65.7768 24.7966 65.7534 24.7728C65.73 24.7489 65.7024 24.7307 65.6712 24.7192C65.6406 24.7077 65.6076 24.7034 65.5752 24.7065H64.1641C63.4646 24.7065 63.2318 24.4567 63.2318 23.8472V18.6769H65.5434C65.6076 18.6769 65.6694 18.6506 65.715 18.6038C65.7606 18.557 65.7864 18.4934 65.7864 18.4272V16.2492C65.7864 16.1829 65.7606 16.1194 65.715 16.0725C65.6694 16.0257 65.6076 15.9994 65.5434 15.9994H63.2318V12.7024C63.2318 12.6362 63.206 12.5726 63.1604 12.5258C63.1148 12.4789 63.053 12.4526 62.9888 12.4526H60.4072C60.3746 12.4496 60.3416 12.4539 60.3109 12.4654C60.28 12.4768 60.252 12.4951 60.2288 12.519C60.2057 12.5428 60.1879 12.5716 60.1768 12.6033C60.1656 12.635 60.1613 12.6688 60.1643 12.7024V15.9794H58.5324C58.468 15.9794 58.4062 16.0057 58.3607 16.0526C58.3151 16.0994 58.2896 16.1629 58.2896 16.2292L58.3187 18.4222ZM101.954 27.2142C101.943 27.2411 101.939 27.2702 101.942 27.299C101.944 27.3279 101.954 27.3557 101.969 27.3801C101.984 27.4045 102.005 27.4249 102.029 27.4395C102.054 27.454 102.081 27.4624 102.109 27.4639H105.082C105.156 27.4662 105.229 27.4429 105.289 27.3976C105.349 27.3523 105.392 27.2877 105.412 27.2142L106.597 23.8972H112.581L113.795 27.2142C113.815 27.2877 113.859 27.3523 113.919 27.3976C113.979 27.4429 114.051 27.4662 114.125 27.4639H117.156C117.184 27.4624 117.212 27.454 117.236 27.4395C117.26 27.4249 117.281 27.4045 117.296 27.3801C117.311 27.3557 117.321 27.3279 117.323 27.299C117.326 27.2702 117.322 27.2411 117.311 27.2142L111.871 12.6874C111.85 12.6212 111.808 12.5641 111.751 12.5245C111.696 12.4849 111.629 12.465 111.561 12.4676H107.694C107.624 12.4604 107.552 12.4782 107.492 12.5181C107.432 12.5581 107.387 12.6177 107.365 12.6874L101.954 27.2142ZM34.2475 24.6565C31.6636 24.6565 29.9345 22.6783 29.9345 19.9408C29.9345 17.2033 31.6636 15.2251 34.2475 15.2251C34.9577 15.2326 35.6565 15.4099 36.2887 15.7428C36.9208 16.0757 37.4691 16.5551 37.8903 17.1433C37.9081 17.1758 37.9333 17.2034 37.9637 17.2239C37.9941 17.2443 38.0287 17.2569 38.0649 17.2609C38.1009 17.2648 38.1374 17.2598 38.1712 17.2463C38.2051 17.2328 38.2352 17.2112 38.2594 17.1833L40.3187 15.365C40.3665 15.32 40.3967 15.2588 40.4039 15.1926C40.411 15.1265 40.3946 15.0599 40.3576 15.0053C39.0948 13.107 36.9577 12.1479 34.2572 12.1479C29.6431 12.1479 26.6026 15.6847 26.6026 19.9408C26.6026 24.2369 29.6528 27.7737 34.2572 27.7737C36.9577 27.7737 39.2308 26.5947 40.3576 24.8763C40.3951 24.8219 40.4119 24.7552 40.4047 24.6888C40.3975 24.6226 40.3669 24.5613 40.3187 24.5166L38.2399 22.7682C38.2176 22.7407 38.189 22.7195 38.1566 22.7061C38.1243 22.6928 38.0893 22.6879 38.0547 22.6918C38.0201 22.6958 37.987 22.7085 37.9582 22.7288C37.9296 22.7491 37.9062 22.7764 37.8903 22.8082C37.4617 23.3824 36.91 23.847 36.2781 24.1659C35.6462 24.4848 34.9513 24.6493 34.2475 24.6465V24.6565ZM56.6479 11.6584H54.0737C54.0411 11.6553 54.0082 11.6596 53.9773 11.6711C53.9465 11.6826 53.9185 11.7009 53.8954 11.7247C53.8722 11.7485 53.8544 11.7773 53.8432 11.809C53.8321 11.8407 53.8279 11.8746 53.8308 11.9081V27.1942C53.8308 27.2604 53.8564 27.324 53.902 27.3708C53.9475 27.4176 54.0093 27.444 54.0737 27.444H56.6358C56.7001 27.444 56.762 27.4176 56.8075 27.3708C56.853 27.324 56.8786 27.2604 56.8786 27.1942V11.9031C56.8816 11.8696 56.8774 11.8357 56.8662 11.804C56.8551 11.7723 56.8372 11.7435 56.8141 11.7197C56.7909 11.6959 56.7629 11.6776 56.7321 11.6661C56.7013 11.6546 56.6684 11.6503 56.6358 11.6534" fill="#C1C1C1"/>
</g>
</g>
<defs>
<clipPath id="clip0_1_1921">
<rect width="149.322" height="36.6755" fill="white" transform="translate(0.916748 0.54834)"/>
</clipPath>
</defs>
</svg>
