<svg width="99" height="38" viewBox="0 0 99 38" fill="none" xmlns="http://www.w3.org/2000/svg">
<g id="Company logo" clip-path="url(#clip0_1_1923)">
<g id="Vector">
<path fill-rule="evenodd" clip-rule="evenodd" d="M95.5801 25.166C95.6392 25.8502 96.1784 26.7212 97.1133 26.7212H97.6596C97.872 26.7212 98.0456 26.545 98.0456 26.3297V14.128H98.0429C98.0324 13.9224 97.8649 13.7578 97.6596 13.7578H95.9661C95.7608 13.7578 95.5933 13.9224 95.5828 14.128H95.5801V15.1194C94.5421 13.8211 92.9058 13.2822 91.2651 13.2822C87.535 13.2822 84.5115 16.3531 84.5115 20.1415C84.5115 23.9302 87.535 27.0011 91.2651 27.0011C92.9058 27.0011 94.6946 26.3549 95.5801 25.1645V25.166ZM91.2713 24.6005C88.8992 24.6005 86.9762 22.6043 86.9762 20.1415C86.9762 17.6792 88.8992 15.6829 91.2713 15.6829C93.6442 15.6829 95.5669 17.6792 95.5669 20.1415C95.5669 22.6043 93.6442 24.6005 91.2713 24.6005Z" fill="#C1C1C1"/>
<path fill-rule="evenodd" clip-rule="evenodd" d="M82.3692 19.2717C82.3692 15.7126 80.1585 13.3116 76.6331 13.3116C74.9502 13.3116 73.5707 14.2999 73.0834 15.1489C72.9781 14.4851 72.6311 13.7873 71.5549 13.7873H71.0064C70.7943 13.7873 70.621 13.9637 70.621 14.1789V25.1965C70.621 25.1969 70.621 25.1977 70.621 25.1982V26.3817H70.6231C70.6342 26.5869 70.8017 26.7518 71.0066 26.7518H72.7006C72.7265 26.7518 72.752 26.7486 72.7766 26.7438C72.7878 26.7416 72.7982 26.7371 72.8091 26.734C72.8217 26.73 72.8348 26.727 72.8468 26.722C72.8619 26.7156 72.8755 26.7071 72.8895 26.6992C72.8964 26.6949 72.9036 26.6919 72.9103 26.6875C72.9272 26.6764 72.9427 26.663 72.9577 26.6495C72.9601 26.6469 72.963 26.6453 72.9655 26.6429C72.9823 26.6264 72.9977 26.6081 73.0113 26.5892C73.0537 26.5301 73.0796 26.4585 73.0838 26.3817H73.086V19.1738C73.086 17.2623 74.6119 15.7126 76.4942 15.7126C78.3763 15.7126 79.9023 17.2623 79.9023 19.1738L79.9038 25.1987L79.9042 25.1965C79.9042 25.2019 79.905 25.2073 79.905 25.2131V26.3817H79.9073C79.9185 26.5869 80.0858 26.7518 80.2906 26.7518H81.9847C82.0108 26.7518 82.0361 26.7486 82.0606 26.7438C82.0706 26.7419 82.0799 26.7378 82.0897 26.735C82.1036 26.7309 82.1179 26.7274 82.1312 26.722C82.145 26.7162 82.1576 26.708 82.1707 26.7005C82.1787 26.696 82.1871 26.6926 82.1948 26.6875C82.2104 26.677 82.2247 26.6644 82.2388 26.652C82.2424 26.6486 82.2464 26.6461 82.2498 26.6427C82.2659 26.6269 82.2802 26.6099 82.2932 26.5921C82.2942 26.5908 82.2952 26.5897 82.2962 26.5884C82.338 26.5298 82.3635 26.4591 82.3679 26.3827C82.3679 26.3822 82.3681 26.3817 82.3681 26.3817H82.3704L82.3692 19.2717Z" fill="#C1C1C1"/>
<path fill-rule="evenodd" clip-rule="evenodd" d="M64.7273 25.1659C64.7865 25.8502 65.3259 26.7212 66.2603 26.7212H66.8069C67.0188 26.7212 67.1923 26.5449 67.1923 26.3297V14.128H67.1901C67.1791 13.9224 67.0115 13.7578 66.8069 13.7578H65.1129C64.908 13.7578 64.7407 13.9224 64.7293 14.128H64.7273V15.1194C63.6893 13.8211 62.0529 13.2822 60.412 13.2822C56.682 13.2822 53.6585 16.3531 53.6585 20.1415C53.6585 23.9301 56.682 27.0012 60.412 27.0012C62.0529 27.0012 63.8413 26.3549 64.7271 25.1644L64.7273 25.1659ZM60.4186 24.6004C58.0465 24.6004 56.1233 22.6043 56.1233 20.1415C56.1233 17.6792 58.0465 15.6829 60.4186 15.6829C62.7909 15.6829 64.7137 17.6792 64.7137 20.1415C64.7137 22.6043 62.7909 24.6004 60.4186 24.6004Z" fill="#C1C1C1"/>
<path fill-rule="evenodd" clip-rule="evenodd" d="M43.6407 23.4184C44.7716 24.2141 46.006 24.6006 47.1922 24.6006C48.3223 24.6006 49.4906 24.0056 49.4906 22.9699C49.4906 21.5872 46.9449 21.3721 45.3454 20.82C43.7456 20.2679 42.3677 19.1265 42.3677 17.2782C42.3677 14.4501 44.849 13.282 47.1648 13.282C48.6321 13.282 50.146 13.7734 51.1275 14.4773C51.4655 14.7375 51.2597 15.0361 51.2597 15.0361L50.3228 16.3952C50.2175 16.5483 50.0333 16.6805 49.7691 16.5148C49.5047 16.3493 48.5777 15.6828 47.1648 15.6828C45.7518 15.6828 44.9007 16.3455 44.9007 17.1669C44.9007 18.1519 46.0069 18.4617 47.3025 18.7975C49.5605 19.4156 52.0236 20.1586 52.0236 22.9699C52.0236 25.4617 49.7286 27.0017 47.1922 27.0017C45.2702 27.0017 43.6337 26.4452 42.2612 25.4223C41.9753 25.1317 42.1749 24.8618 42.1749 24.8618L43.1073 23.5096C43.297 23.2568 43.5361 23.345 43.6407 23.4184Z" fill="#C1C1C1"/>
<path fill-rule="evenodd" clip-rule="evenodd" d="M37.1283 25.1659C37.1875 25.8502 37.7268 26.7212 38.6611 26.7212H39.2079C39.4198 26.7212 39.5935 26.5449 39.5935 26.3297V14.128H39.5911C39.58 13.9224 39.4127 13.7578 39.2079 13.7578H37.5139C37.309 13.7578 37.1417 13.9224 37.1303 14.128H37.1283V15.1194C36.0904 13.8211 34.454 13.2822 32.813 13.2822C29.0831 13.2822 26.0593 16.3531 26.0593 20.1415C26.0593 23.9301 29.0831 27.0012 32.813 27.0012C34.454 27.0012 36.2423 26.3549 37.128 25.1644L37.1283 25.1659ZM32.8196 24.6004C30.4474 24.6004 28.5243 22.6043 28.5243 20.1415C28.5243 17.6792 30.4474 15.6829 32.8196 15.6829C35.1918 15.6829 37.1147 17.6792 37.1147 20.1415C37.1147 22.6043 35.1918 24.6004 32.8196 24.6004Z" fill="#C1C1C1"/>
</g>
<path id="Vector_2" fill-rule="evenodd" clip-rule="evenodd" d="M16.5914 20.608C14.0814 20.608 12.0464 22.673 12.0464 25.2206C12.0464 27.768 14.0814 29.833 16.5914 29.833C19.1015 29.833 21.1364 27.768 21.1364 25.2206C21.1364 22.673 19.1015 20.608 16.5914 20.608ZM4.78325 20.6084C2.27315 20.6084 0.238281 22.673 0.238281 25.2206C0.238281 27.768 2.27315 29.833 4.78325 29.833C7.29345 29.833 9.32842 27.768 9.32842 25.2206C9.32842 22.673 7.29345 20.6084 4.78325 20.6084ZM15.2322 14.8423C15.2322 17.3899 13.1975 19.4551 10.6873 19.4551C8.17715 19.4551 6.14239 17.3899 6.14239 14.8423C6.14239 12.2953 8.17715 10.23 10.6873 10.23C13.1975 10.23 15.2322 12.2953 15.2322 14.8423Z" fill="#C1C1C1"/>
</g>
<defs>
<clipPath id="clip0_1_1923">
<rect width="98.4776" height="37.7722" fill="white" transform="translate(0.238281)"/>
</clipPath>
</defs>
</svg>
