<svg width="120" height="38" viewBox="0 0 120 38" fill="none" xmlns="http://www.w3.org/2000/svg">
<g id="Company logo" clip-path="url(#clip0_1_1926)">
<g id="Vector">
<path d="M10.442 20.6104C10.442 18.5593 8.95013 17.1178 7.11764 17.1178C5.28514 17.1178 3.79331 18.5836 3.79331 20.6104C3.79331 22.6129 5.28514 24.1031 7.11764 24.1031C8.95199 24.1012 10.442 22.6615 10.442 20.6104ZM10.4682 26.7151V25.1277C9.56406 26.2271 8.21825 26.9095 6.60664 26.9095C3.25797 26.9095 0.716064 24.2227 0.716064 20.6104C0.716064 17.0206 3.35531 14.287 6.6815 14.287C8.24637 14.287 9.56598 14.9713 10.47 16.0446V14.5058H13.4761V26.7151H10.4682Z" fill="#C1C1C1"/>
<path d="M28.0779 24.004C27.026 24.004 26.734 23.6132 26.734 22.5886V17.1682H28.6657V14.5058H26.734V11.5273H23.653V14.5058H19.6848V13.7635C19.6848 12.737 20.076 12.3462 21.1523 12.3462H21.828V9.9773H20.3455C17.8036 9.9773 16.6057 10.8075 16.6057 13.3465V14.5039H14.8949V17.1664H16.6057V26.7132H19.6867V17.1664H23.6549V23.1495C23.6549 25.6399 24.6077 26.7151 27.1009 26.7151H28.69V24.004H28.0779Z" fill="#C1C1C1"/>
<path d="M39.1274 19.511C38.9083 17.9236 37.6112 16.9719 36.0969 16.9719C34.5807 16.9719 33.3341 17.8993 33.0178 19.511H39.1274ZM32.9916 21.4162C33.2125 23.2224 34.5077 24.2489 36.1456 24.2489C37.4408 24.2489 38.4442 23.6374 39.03 22.6614H42.184C41.4502 25.2491 39.1274 26.9095 36.0726 26.9095C32.3813 26.9095 29.7908 24.3217 29.7908 20.6347C29.7908 16.9476 32.5293 14.2851 36.1474 14.2851C39.79 14.2851 42.4292 16.9719 42.4292 20.6347C42.4292 20.9039 42.4049 21.1713 42.3562 21.4162H32.9916Z" fill="#C1C1C1"/>
<path d="M62.0176 20.6104C62.0176 18.6322 60.5258 17.1178 58.6933 17.1178C56.8608 17.1178 55.3689 18.5836 55.3689 20.6104C55.3689 22.6129 56.8608 24.1031 58.6933 24.1031C60.5258 24.1012 62.0176 22.5886 62.0176 20.6104ZM52.3367 14.5058H55.3427V16.0932C56.2468 14.9695 57.5908 14.287 59.2043 14.287C62.5043 14.287 65.0949 16.9981 65.0949 20.5861C65.0949 24.176 62.4556 26.9114 59.1313 26.9114C57.5908 26.9114 56.3199 26.3 55.4401 25.2754V31.739H52.3367V14.5058Z" fill="#C1C1C1"/>
<path d="M75.9307 20.6104C75.9307 18.5593 74.4408 17.1178 72.6062 17.1178C70.7738 17.1178 69.282 18.5836 69.282 20.6104C69.282 22.6129 70.7738 24.1031 72.6062 24.1031C74.4408 24.1012 75.9307 22.6615 75.9307 20.6104ZM75.9571 26.7151V25.1277C75.053 26.2271 73.7068 26.9095 72.0951 26.9095C68.7467 26.9095 66.2048 24.2227 66.2048 20.6104C66.2048 17.0206 68.8441 14.287 72.1684 14.287C73.7331 14.287 75.053 14.9713 75.9571 16.0446V14.5058H78.9633V26.7151H75.9571Z" fill="#C1C1C1"/>
<path d="M46.9177 15.7024C46.9177 15.7024 47.6833 14.287 49.5569 14.287C50.3581 14.287 50.8766 14.5619 50.8766 14.5619V17.6768C50.8766 17.6768 49.746 16.9794 48.7072 17.1196C47.6683 17.2599 47.0113 18.2134 47.0151 19.4886V26.7169H43.9116V14.5076H46.9177V15.7024Z" fill="#C1C1C1"/>
<path d="M93.0031 14.5058L85.413 31.6997H82.2124L85.1923 25.0528L80.1536 14.5058H83.7814L86.7293 21.5527L89.7541 14.5058H93.0031Z" fill="#C1C1C1"/>
<path d="M117.232 14.229L109.708 9.89129C107.499 8.61801 104.738 10.2091 104.738 12.7576V13.2026C104.738 13.6046 104.953 13.9766 105.301 14.1767L106.722 14.9956C107.139 15.2368 107.66 14.9358 107.66 14.4553V13.3484C107.66 12.795 108.259 12.4491 108.738 12.7258L115.255 16.4839C115.735 16.7606 115.735 17.4524 115.255 17.7273L108.738 21.4855C108.259 21.7622 107.66 21.4163 107.66 20.8628V20.2738C107.66 17.7254 104.899 16.1324 102.688 17.4075L95.1639 21.7453C92.9549 23.0186 92.9549 26.2046 95.1639 27.4779L102.688 31.8157C104.897 33.0889 107.66 31.4978 107.66 28.9494V28.5044C107.66 28.1024 107.445 27.7321 107.096 27.5302L105.676 26.7094C105.258 26.4683 104.738 26.7693 104.738 27.2498V28.3567C104.738 28.9101 104.139 29.256 103.66 28.9793L97.1422 25.2211C96.6631 24.9444 96.6631 24.2527 97.1422 23.9759L103.66 20.2177C104.139 19.941 104.738 20.2869 104.738 20.8404V21.4294C104.738 23.9778 107.499 25.5708 109.708 24.2956L117.232 19.9579C119.441 18.6883 119.441 15.5023 117.232 14.229Z" fill="#C1C1C1"/>
</g>
</g>
<defs>
<clipPath id="clip0_1_1926">
<rect width="118.713" height="37.7722" fill="white" transform="translate(0.71582)"/>
</clipPath>
</defs>
</svg>
