<svg width="108" height="20" viewBox="0 0 108 20" fill="none" xmlns="http://www.w3.org/2000/svg">
<g id="Vector">
<path fill-rule="evenodd" clip-rule="evenodd" d="M2.41736 16.8347C-0.0437753 14.5606 -0.0437361 10.8736 2.41744 8.59945L9.10209 2.42288C11.1827 0.500462 14.356 0.203148 16.7745 1.53094C17.5227 1.94163 17.5161 2.88377 16.9008 3.4523C16.2855 4.02083 15.2811 3.9719 14.4459 3.74619C13.3765 3.45717 12.1738 3.70235 11.3303 4.48171L4.64563 10.6582C3.41505 11.7953 3.41503 13.6388 4.6456 14.7759C5.8762 15.913 7.87142 15.913 9.102 14.7759L22.4712 2.42295C24.9324 0.14885 28.9227 0.14884 31.384 2.42293L38.0687 8.59945C40.5299 10.8735 40.5299 14.5606 38.0687 16.8347C35.6075 19.1088 31.6172 19.1088 29.1559 16.8347L26.9277 14.7759L24.1425 17.3495C22.0619 19.2719 18.8886 19.5692 16.4699 18.2414C15.7219 17.8307 15.7284 16.8886 16.3438 16.32C16.959 15.7515 17.9634 15.8004 18.7986 16.0261C19.8681 16.3151 21.0708 16.0699 21.9142 15.2906L24.7791 12.6435C25.9658 11.5471 27.8897 11.5471 29.0764 12.6435L31.3841 14.7759C32.6147 15.9129 34.6099 15.9129 35.8405 14.7759C37.071 13.6388 37.071 11.7953 35.8405 10.6582L29.1557 4.48178C27.9252 3.34473 25.93 3.34474 24.6994 4.48179L11.3302 16.8348C8.86899 19.1089 4.87855 19.1089 2.41736 16.8347Z" fill="#C1C1C1"/>
<path d="M65.0874 4.01777C63.5388 4.01777 62.3655 4.53456 61.5912 5.56814C60.9108 4.53456 59.8314 4.01777 58.4001 4.01777C56.9218 4.01777 55.8424 4.49149 55.1384 5.46048V4.31923H52.1115V15.0857H55.1384V9.03491C55.1384 7.46304 56.0066 6.60173 57.3441 6.60173C58.5877 6.60173 59.3152 7.35538 59.3152 8.64738V15.0857H62.3421V9.03491C62.3421 7.46304 63.1399 6.60173 64.5243 6.60173C65.7679 6.60173 66.4953 7.35538 66.4953 8.64738V15.0857H69.5222V8.45353C69.5222 5.76194 67.7859 4.01777 65.0874 4.01777Z" fill="#C1C1C1"/>
<path d="M80.7748 5.58967C79.8597 4.53456 78.5927 4.01777 76.9502 4.01777C75.378 4.01777 74.0406 4.57763 72.9143 5.67581C71.8115 6.77398 71.2483 8.10903 71.2483 9.70248C71.2483 11.2959 71.8115 12.6525 72.9143 13.7507C74.0406 14.8488 75.378 15.3872 76.9502 15.3872C78.5927 15.3872 79.8597 14.8704 80.7748 13.8153V15.0857H83.802V4.31923H80.7748V5.58967ZM75.1903 11.8988C74.5802 11.3174 74.2752 10.5853 74.2752 9.70248C74.2752 8.8196 74.5802 8.08749 75.1903 7.52764C75.8004 6.94625 76.5747 6.66632 77.5133 6.66632C78.4519 6.66632 79.2262 6.94625 79.8363 7.52764C80.4698 8.08749 80.7748 8.8196 80.7748 9.70248C80.7748 10.5853 80.4698 11.3174 79.8363 11.8988C79.2262 12.4587 78.4519 12.7386 77.5133 12.7386C76.5747 12.7386 75.8004 12.4587 75.1903 11.8988Z" fill="#C1C1C1"/>
<path d="M94.9705 6.17102V4.31919H86.1714V6.92468H90.8874L85.936 13.2338V15.0856H95.205V12.4801H89.9954L94.9705 6.17102Z" fill="#C1C1C1"/>
<path d="M107.861 10.8437C107.932 10.4346 107.978 10.0685 107.978 9.70248C107.978 8.08749 107.416 6.75245 106.289 5.65427C105.187 4.55609 103.755 4.01777 102.042 4.01777C100.235 4.01777 98.7339 4.55609 97.5836 5.65427C96.4341 6.73092 95.8471 8.08749 95.8471 9.70248C95.8471 11.339 96.4341 12.6956 97.6074 13.7722C98.7807 14.8488 100.329 15.3872 102.277 15.3872C104.529 15.3872 106.243 14.6119 107.392 13.0831L104.952 11.7911C104.365 12.5017 103.474 12.8678 102.323 12.8678C100.517 12.8678 99.4145 12.2003 99.0152 10.8437H107.861ZM98.9684 8.69039C99.3202 7.31231 100.423 6.51559 102.042 6.51559C103.426 6.51559 104.599 7.22618 104.952 8.69039H98.9684Z" fill="#C1C1C1"/>
</g>
</svg>
