<svg width="141" height="22" viewBox="0 0 141 22" fill="none" xmlns="http://www.w3.org/2000/svg">
<g id="Vector">
<path d="M15.0604 12.2178C15.1148 12.3114 15.1336 12.4226 15.113 12.5296C14.9208 13.4313 14.4533 14.2453 13.7794 14.8519C13.7424 14.8808 13.7113 14.9169 13.6879 14.9582C13.6795 14.9771 13.6751 14.9976 13.6751 15.0184C13.6751 15.0392 13.6795 15.0598 13.6879 15.0786C13.7013 15.0948 13.7183 15.1075 13.7373 15.1157C13.7564 15.1239 13.7771 15.1274 13.7977 15.1259C13.8953 15.099 13.9896 15.061 14.079 15.0125C14.4743 14.7806 14.8236 14.4736 15.1084 14.1077C15.28 13.8927 15.4492 13.6777 15.6117 13.4557C15.9175 13.0171 16.1438 12.5248 16.2796 12.0028C16.4031 11.58 16.5084 11.1524 16.6365 10.7295C16.6888 10.5744 16.7523 10.4236 16.8264 10.2783C16.8561 10.2335 16.8907 10.1923 16.9293 10.1555H16.9613C16.9933 10.2665 17.0322 10.3728 17.0551 10.4862C17.1149 10.8428 17.1234 11.2066 17.0803 11.5658C17.0328 12.0333 16.9401 12.4946 16.8035 12.943C16.7078 13.2186 16.5787 13.4806 16.4192 13.7226C16.0183 14.4049 15.5449 15.0388 15.0078 15.6125C14.6121 16.0072 14.1842 16.366 13.729 16.6851C13.6959 16.7026 13.6657 16.7258 13.6399 16.7536C13.6132 16.7867 13.5994 16.8287 13.601 16.8717C13.6105 16.8909 13.6245 16.9074 13.6416 16.9197C13.6587 16.9321 13.6786 16.9399 13.6993 16.9426C13.795 16.9419 13.8903 16.9292 13.9829 16.9047C14.4056 16.779 14.8009 16.5704 15.1473 16.2905C16.1162 15.5529 16.903 14.5898 17.4439 13.4793C17.7887 12.7548 18.0122 11.9752 18.105 11.1736C18.1607 10.6676 18.1661 10.157 18.1211 9.64991C18.0818 9.39002 18.0895 9.12488 18.1439 8.86796C18.1583 8.80907 18.1791 8.75199 18.2057 8.69783C18.2674 8.57498 18.3567 8.56792 18.4161 8.69783C18.4787 8.8208 18.5249 8.95195 18.5534 9.08764C18.679 9.73745 18.7182 10.4019 18.67 11.0626C18.5813 12.1361 18.3199 13.1867 17.8969 14.1715C17.4684 15.1854 16.8251 16.0872 16.0143 16.8102C15.7512 17.0465 15.4996 17.2828 15.2274 17.5048C14.9004 17.7503 14.5502 17.9609 14.182 18.1332C13.3696 18.55 12.505 18.8482 11.6131 19.0191C11.0665 19.117 10.5113 19.1551 9.95695 19.1325C9.68478 19.1325 9.41024 19.1136 9.13807 19.0994C8.52264 19.0642 7.91547 18.9369 7.33547 18.7214C6.49563 18.4196 5.6884 18.0285 4.92677 17.5544C4.03856 16.992 3.28102 16.2347 2.70789 15.3361C2.42495 14.9136 2.17848 14.4662 1.97132 13.999C1.96076 13.9713 1.94376 13.9467 1.92183 13.9273C1.89989 13.908 1.87368 13.8944 1.84551 13.888C1.69508 13.8494 1.55513 13.7759 1.43624 13.6732C1.31736 13.5705 1.22264 13.4411 1.15925 13.295C0.989634 12.8672 0.857946 12.4245 0.765807 11.9721C0.598165 11.2418 0.508417 10.4948 0.498169 9.7444C0.505039 9.26927 0.5471 8.79542 0.623982 8.32693C0.710812 7.69043 0.864208 7.06547 1.08148 6.46305C1.27364 5.93583 1.54372 5.44255 1.8821 5.00073C2.07883 4.74559 2.24124 4.45974 2.43339 4.19988C3.65289 2.53536 5.39886 1.36505 7.36752 0.892552C7.74723 0.798057 8.127 0.698836 8.51129 0.625602C8.85438 0.559456 9.19753 0.516934 9.54977 0.48386C9.95695 0.446062 10.3641 0.412989 10.7736 0.408264C12.4163 0.384642 14.0255 0.889061 15.3784 1.85168C15.5325 1.94798 15.6714 2.0683 15.7901 2.2084C15.8777 2.31864 15.936 2.45053 15.9594 2.5911C15.9684 2.62418 15.9867 2.65376 16.012 2.67615C16.3345 2.99743 16.6777 3.30218 16.975 3.64708C17.4476 4.18028 17.7896 4.82267 17.9724 5.52045C18.0561 5.80228 18.0853 6.09838 18.0582 6.39185C18.0311 6.6853 17.9483 6.9704 17.8145 7.23082C17.5908 7.61981 17.2762 7.94472 16.8995 8.17577C16.4805 8.47022 15.9778 8.61081 15.4721 8.57498C14.9994 8.55268 14.5507 8.35372 14.2095 8.0151C13.8509 7.63037 13.4689 7.26975 13.0657 6.9355C12.8004 6.72761 12.5258 6.53157 12.2491 6.34492C11.9145 6.13727 11.5438 5.99923 11.1579 5.93859C10.719 5.85568 10.272 5.82791 9.82657 5.85591C8.85291 5.87507 7.91083 6.21621 7.13875 6.82922C6.56017 7.28066 6.08395 7.85711 5.74341 8.51831C5.55054 8.9195 5.4289 9.35319 5.38426 9.79874C5.34702 10.0736 5.32564 10.3504 5.32022 10.6279C5.34179 11.4188 5.54151 12.1937 5.90353 12.891C6.17102 13.432 6.527 13.9211 6.95576 14.3369C7.35457 14.707 7.79639 15.0244 8.27111 15.2818C8.81137 15.5843 9.40804 15.7639 10.021 15.8086C10.826 15.8954 11.6391 15.7694 12.384 15.4424C12.741 15.2691 13.0698 15.0396 13.3585 14.7621C13.8572 14.3191 14.2755 13.7879 14.5937 13.1934C14.7127 12.9785 14.795 12.7422 14.8957 12.5155C14.9254 12.447 14.9597 12.3784 14.994 12.3123C15.015 12.2802 15.0396 12.2509 15.0673 12.2249" fill="#C1C1C1"/>
<path d="M134.859 8.61752C136.506 8.61752 137.604 9.88376 137.604 11.7548C137.604 13.6258 136.506 14.8731 134.859 14.8731C133.212 14.8731 132.096 13.6258 132.096 11.7359C132.096 9.84594 133.193 8.61752 134.859 8.61752ZM86.6384 8.42854C87.9196 8.42854 88.7611 9.1656 88.9628 10.3373H84.3327C84.5339 9.15615 85.3759 8.42854 86.6384 8.42854ZM45.1341 13.0399C45.1341 14.1927 44.4753 14.8731 43.3041 14.8731C42.1329 14.8731 41.4375 14.1927 41.4375 13.0399V6.57644C41.4375 6.51376 41.4135 6.4537 41.3705 6.40935C41.3276 6.36505 41.2695 6.34019 41.2088 6.34019H38.8298C38.7691 6.34019 38.7109 6.36505 38.6681 6.40935C38.6252 6.4537 38.601 6.51376 38.601 6.57644V13.1533C38.601 16.026 40.2297 17.4623 42.2793 17.4623C43.7433 17.4623 44.7315 16.5362 45.1524 15.1377V16.9331C45.1557 16.9947 45.1809 17.0528 45.2231 17.0963C45.2653 17.1399 45.3216 17.1659 45.3812 17.1693H47.7785C47.8391 17.1693 47.8973 17.1444 47.9402 17.1001C47.9831 17.0558 48.0073 16.9957 48.0073 16.9331V6.57644C48.0073 6.51376 47.9831 6.4537 47.9402 6.40935C47.8973 6.36505 47.8391 6.34019 47.7785 6.34019H45.372C45.3113 6.34019 45.2532 6.36505 45.2103 6.40935C45.1674 6.4537 45.1433 6.51376 45.1433 6.57644L45.1341 13.0399ZM69.7658 13.0399C69.7658 14.1927 69.1069 14.8731 67.936 14.8731C66.7644 14.8731 66.0693 14.1927 66.0693 13.0399V6.57644C66.0693 6.51376 66.045 6.4537 66.0021 6.40935C65.9597 6.36505 65.9015 6.34019 65.8404 6.34019H63.4618C63.4008 6.34019 63.3426 6.36505 63.2996 6.40935C63.2567 6.4537 63.2329 6.51376 63.2329 6.57644V13.1533C63.2329 16.026 64.8616 17.4623 66.9114 17.4623C68.3751 17.4623 69.3635 16.5362 69.7839 15.1377V16.9331C69.7873 16.9947 69.8128 17.0528 69.8551 17.0963C69.897 17.1399 69.9535 17.1659 70.0128 17.1693H72.4101C72.4711 17.1693 72.5294 17.1444 72.5723 17.1001C72.6147 17.0558 72.639 16.9957 72.639 16.9331V6.57644C72.639 6.51376 72.6147 6.4537 72.5723 6.40935C72.5294 6.36505 72.4711 6.34019 72.4101 6.34019H70.0038C69.9433 6.34019 69.8851 6.36505 69.8421 6.40935C69.7992 6.4537 69.7749 6.51376 69.7749 6.57644L69.7658 13.0399ZM74.9814 16.9331C74.9814 16.9957 75.0058 17.0558 75.0481 17.1001C75.0911 17.1444 75.1493 17.1693 75.2103 17.1693H77.5709C77.6314 17.1693 77.6896 17.1444 77.7325 17.1001C77.7755 17.0558 77.7998 16.9957 77.7998 16.9331V10.9988C77.7998 9.50574 78.7147 9.22227 79.9959 9.22227H80.947C81.008 9.22227 81.0662 9.19741 81.1092 9.15312C81.1521 9.10882 81.1759 9.0487 81.1759 8.98602V6.57644C81.1759 6.51376 81.1521 6.4537 81.1092 6.40935C81.0662 6.36505 81.008 6.34019 80.947 6.34019H80.7187C79.1815 6.34019 78.2298 7.07726 77.7907 8.87268V6.5859C77.7907 6.52321 77.7664 6.4631 77.7235 6.4188C77.6805 6.37451 77.6223 6.34964 77.5618 6.34964H75.2013C75.1402 6.34964 75.082 6.37451 75.0391 6.4188C74.9961 6.4631 74.9724 6.52321 74.9724 6.5859L74.9814 16.9331ZM111.746 16.9331C111.746 16.9957 111.77 17.0558 111.813 17.1001C111.856 17.1444 111.914 17.1693 111.975 17.1693H114.354C114.415 17.1693 114.473 17.1444 114.516 17.1001C114.558 17.0558 114.582 16.9957 114.582 16.9331V10.3373C114.582 9.279 115.15 8.61752 116.229 8.61752C117.309 8.61752 117.913 9.279 117.913 10.3373V16.9331C117.913 16.9957 117.937 17.0558 117.98 17.1001C118.023 17.1444 118.081 17.1693 118.142 17.1693H120.539C120.6 17.1693 120.658 17.1444 120.701 17.1001C120.744 17.0558 120.768 16.9957 120.768 16.9331V10.3373C120.768 9.279 121.353 8.61752 122.415 8.61752C123.477 8.61752 124.099 9.279 124.099 10.3373V16.9331C124.102 16.9947 124.127 17.0528 124.169 17.0963C124.211 17.1399 124.268 17.1659 124.327 17.1693H126.706C126.767 17.1693 126.825 17.1444 126.868 17.1001C126.911 17.0558 126.935 16.9957 126.935 16.9331V10.2428C126.935 7.44576 125.334 6.02835 123.293 6.02835C121.573 6.02835 120.695 7.1812 120.237 8.62697C120.108 7.90578 119.742 7.25287 119.2 6.7792C118.658 6.30552 117.973 6.04019 117.263 6.02835C115.763 6.02835 115.086 6.97331 114.573 8.37181V6.57644C114.573 6.51376 114.549 6.4537 114.506 6.40935C114.463 6.36505 114.406 6.34019 114.345 6.34019H111.966C111.905 6.34019 111.847 6.36505 111.804 6.40935C111.761 6.4537 111.737 6.51376 111.737 6.57644L111.746 16.9331ZM140.642 11.7548C140.642 8.5797 138.83 6.02835 135.92 6.02835C134.017 6.02835 132.553 7.0678 132.096 8.54194V6.57644C132.096 6.51376 132.072 6.4537 132.029 6.40935C131.986 6.36505 131.928 6.34019 131.867 6.34019H129.479C129.418 6.34019 129.36 6.36505 129.317 6.40935C129.274 6.4537 129.25 6.51376 129.25 6.57644V21.1287C129.25 21.1913 129.274 21.2514 129.317 21.2957C129.36 21.34 129.418 21.3649 129.479 21.3649H131.876C131.937 21.3649 131.995 21.34 132.038 21.2957C132.081 21.2514 132.105 21.1913 132.105 21.1287V14.9865C132.562 16.4606 134.026 17.4812 135.929 17.4812C138.839 17.4812 140.651 14.9487 140.651 11.7548H140.642ZM101.004 11.1169L102.85 5.97165L104.701 11.1169H101.004ZM91.854 11.7595C91.854 8.52775 89.9874 5.90078 86.6203 5.90078C83.4545 5.90078 81.3867 8.52775 81.3867 11.7595C81.3867 15.1046 83.6924 17.5993 87.2058 17.5993C89.1092 17.5993 90.7379 16.7299 91.5065 15.5771C91.5262 15.5501 91.5409 15.5192 91.5489 15.4863C91.5573 15.4533 91.559 15.419 91.5534 15.3854C91.5483 15.3517 91.537 15.3196 91.5195 15.2908C91.5014 15.262 91.4788 15.2372 91.4517 15.218L89.8501 13.7439C89.828 13.7237 89.802 13.7086 89.7738 13.6995C89.7455 13.6904 89.7156 13.6875 89.6862 13.6911C89.6573 13.6946 89.6285 13.7046 89.6037 13.7202C89.5782 13.7358 89.5562 13.7567 89.5392 13.7817C89.2657 14.1891 88.8984 14.52 88.47 14.7443C88.0422 14.9686 87.5669 15.0795 87.0866 15.0668C85.7325 15.0668 84.4881 14.4053 84.305 12.5911H91.6251C91.6562 12.594 91.6867 12.5898 91.7161 12.579C91.745 12.5681 91.7715 12.5508 91.793 12.5283C91.815 12.5057 91.832 12.4785 91.8421 12.4485C91.8529 12.4185 91.8568 12.3865 91.854 12.3548V11.7595ZM54.5678 8.64115C54.5678 8.70378 54.5919 8.76389 54.6348 8.80819C54.6777 8.85249 54.7358 8.87735 54.7965 8.87735H56.3337V13.9518C56.3337 15.9929 57.3403 17.1835 59.4448 17.1835H61.403C61.4635 17.1835 61.5217 17.1586 61.5647 17.1143C61.6076 17.07 61.6313 17.0099 61.6313 16.9473V14.8211C61.6342 14.7894 61.6302 14.7574 61.62 14.7274C61.6093 14.6974 61.5929 14.6702 61.5709 14.6477C61.5488 14.6251 61.5228 14.6078 61.4935 14.5969C61.4646 14.5861 61.4335 14.582 61.403 14.5849H60.0738C59.4149 14.5849 59.1956 14.3487 59.1956 13.7722V8.88208H61.3731C61.4335 8.88208 61.4917 8.85721 61.5347 8.81292C61.5776 8.76862 61.6019 8.7085 61.6019 8.64588V6.5859C61.6019 6.52321 61.5776 6.4631 61.5347 6.4188C61.4917 6.37451 61.4335 6.34964 61.3731 6.34964H59.1956V3.2313C59.1956 3.16864 59.1713 3.10855 59.1284 3.06425C59.0854 3.01995 59.0272 2.99505 58.9667 2.99505H56.535C56.5043 2.99215 56.4733 2.99627 56.4443 3.00711C56.4152 3.01796 56.3888 3.03527 56.367 3.05781C56.3452 3.08035 56.3284 3.10758 56.318 3.13757C56.3075 3.16755 56.3034 3.19955 56.3063 3.2313V6.33073H54.7691C54.7084 6.33073 54.6502 6.3556 54.6073 6.39995C54.5644 6.44425 54.5403 6.50431 54.5403 6.56699L54.5678 8.64115ZM95.6698 16.9567C95.6596 16.9822 95.6557 17.0097 95.6585 17.037C95.6608 17.0643 95.6698 17.0906 95.6839 17.1137C95.6981 17.1368 95.7178 17.156 95.7404 17.1698C95.7636 17.1836 95.7896 17.1915 95.8162 17.1929H98.6158C98.6859 17.1951 98.7543 17.173 98.8108 17.1302C98.8673 17.0874 98.908 17.0263 98.9267 16.9567L100.043 13.8195H105.679L106.823 16.9567C106.842 17.0263 106.883 17.0874 106.94 17.1302C106.996 17.173 107.065 17.1951 107.135 17.1929H109.989C110.016 17.1915 110.042 17.1836 110.065 17.1698C110.087 17.156 110.107 17.1368 110.121 17.1137C110.135 17.0906 110.145 17.0643 110.147 17.037C110.15 17.0097 110.146 16.9822 110.135 16.9567L105.011 3.21712C104.991 3.15454 104.952 3.1005 104.898 3.06305C104.846 3.02559 104.783 3.00672 104.719 3.00923H101.077C101.01 3.00241 100.943 3.01926 100.887 3.05702C100.83 3.09478 100.788 3.15122 100.766 3.21712L95.6698 16.9567ZM31.8941 14.5376C29.4602 14.5376 27.8315 12.6666 27.8315 10.0775C27.8315 7.48831 29.4602 5.6173 31.8941 5.6173C32.563 5.62443 33.2213 5.79205 33.8167 6.10691C34.4122 6.42178 34.9286 6.87526 35.3254 7.43158C35.3422 7.46228 35.3659 7.48837 35.3945 7.50774C35.4231 7.52706 35.4558 7.53902 35.4898 7.54276C35.5238 7.54644 35.5581 7.54171 35.59 7.52899C35.6219 7.5162 35.6503 7.49578 35.673 7.4694L37.6128 5.74959C37.6578 5.70708 37.6863 5.64917 37.693 5.5866C37.6998 5.52403 37.6843 5.46106 37.6495 5.40941C36.4599 3.614 34.4469 2.70685 31.9033 2.70685C27.557 2.70685 24.693 6.05197 24.693 10.0775C24.693 14.1408 27.5662 17.4859 31.9033 17.4859C34.4469 17.4859 36.588 16.3708 37.6495 14.7455C37.6848 14.694 37.7006 14.631 37.6938 14.5682C37.687 14.5055 37.6582 14.4476 37.6128 14.4053L35.6547 12.7517C35.6337 12.7257 35.6067 12.7056 35.5763 12.693C35.5458 12.6803 35.5128 12.6757 35.4803 12.6794C35.4476 12.6831 35.4165 12.6952 35.3894 12.7144C35.3624 12.7336 35.3404 12.7594 35.3254 12.7895C34.9216 13.3326 34.402 13.772 33.8068 14.0736C33.2116 14.3752 32.5571 14.5308 31.8941 14.5282V14.5376ZM52.994 2.24382H50.5692C50.5385 2.24092 50.5075 2.24503 50.4785 2.25587C50.4494 2.26672 50.4231 2.28403 50.4013 2.30657C50.3794 2.32911 50.3627 2.35635 50.3522 2.38633C50.3416 2.41631 50.3377 2.44831 50.3405 2.48006V16.9378C50.3405 17.0004 50.3646 17.0606 50.4075 17.1049C50.4504 17.1492 50.5086 17.1741 50.5692 17.1741H52.9826C53.0432 17.1741 53.1014 17.1492 53.1443 17.1049C53.1872 17.0606 53.2113 17.0004 53.2113 16.9378V2.47533C53.2141 2.44358 53.2101 2.41158 53.1996 2.3816C53.1891 2.35162 53.1723 2.32439 53.1505 2.30185C53.1287 2.27931 53.1023 2.262 53.0733 2.25115C53.0443 2.2403 53.0133 2.23619 52.9826 2.2391" fill="#C1C1C1"/>
</g>
</svg>
