<svg width="30" height="30" viewBox="0 0 30 30" fill="none" xmlns="http://www.w3.org/2000/svg">
<g id="fi_3522053" clip-path="url(#clip0_1_6611)">
<g id="Group">
<path id="Vector" d="M25.7666 7.58423V4.2334H22.4158C22.4158 2.41604 20.9372 0.9375 19.1199 0.9375C17.3025 0.9375 15.824 2.41604 15.824 4.2334H13.3521C6.51965 4.2334 0.9375 9.81621 0.9375 16.6479C0.9375 23.4803 6.52031 29.0625 13.3521 29.0625C20.1844 29.0625 25.7666 23.4797 25.7666 16.6479V14.176C27.584 14.176 29.0625 12.6975 29.0625 10.8801C29.0625 9.06277 27.584 7.58423 25.7666 7.58423ZM12.5281 5.9126V9.71959C13.5216 9.38785 13.7215 9.23218 14.176 9.23218C15.0847 9.23218 15.824 9.97145 15.824 10.8801C15.824 11.7888 15.0847 12.5281 14.176 12.5281C13.7208 12.5281 13.5187 12.3715 12.5281 12.0407V15.824H10.8801C10.8801 14.0066 9.40159 12.5281 7.58423 12.5281C5.76687 12.5281 4.28833 14.0066 4.28833 15.824H2.61671C3.01826 10.5427 7.24684 6.31415 12.5281 5.9126ZM2.61671 17.4719H6.4238C6.09163 16.4775 5.93628 16.2785 5.93628 15.824C5.93628 14.9153 6.67555 14.176 7.58423 14.176C8.49291 14.176 9.23218 14.9153 9.23218 15.824C9.23218 16.2785 9.07661 16.478 8.74466 17.4719H12.5281V19.1199C10.7107 19.1199 9.23218 20.5984 9.23218 22.4158C9.23218 24.2331 10.7107 25.7117 12.5281 25.7117V27.3833C7.24684 26.9817 3.01826 22.7532 2.61671 17.4719ZM14.176 27.3833V23.5763C13.1825 23.908 12.9826 24.0637 12.5281 24.0637C11.6194 24.0637 10.8801 23.3245 10.8801 22.4158C10.8801 21.5071 11.6194 20.7678 12.5281 20.7678C12.9833 20.7678 13.1854 20.9244 14.176 21.2552V17.4719H15.824C15.824 19.2893 17.3025 20.7678 19.1199 20.7678C20.9372 20.7678 22.4158 19.2887 22.4158 17.4714L24.0874 17.4719C23.6858 22.7532 19.4573 26.9817 14.176 27.3833ZM25.7666 12.5281C25.393 12.5281 25.1098 12.3581 24.1187 12.018V15.824H20.2803C20.6124 16.8184 20.7678 17.0174 20.7678 17.4719C20.7678 18.3806 20.0286 19.1199 19.1199 19.1199C18.2112 19.1199 17.4719 18.3806 17.4719 17.4719C17.4719 17.0174 17.6275 16.8179 17.9594 15.824H14.176V14.176C15.9934 14.176 17.4719 12.6975 17.4719 10.8801C17.4719 9.06277 15.9934 7.58423 14.176 7.58423V5.88135H17.982C17.6457 4.90126 17.4719 4.60682 17.4719 4.2334C17.4719 3.32472 18.2112 2.58545 19.1199 2.58545C20.0286 2.58545 20.7678 3.32472 20.7678 4.2334C20.7678 4.60715 20.5976 4.89071 20.2578 5.88135H24.1187V9.74222C25.0987 9.40593 25.3932 9.23218 25.7666 9.23218C26.6753 9.23218 27.4146 9.97145 27.4146 10.8801C27.4146 11.7888 26.6753 12.5281 25.7666 12.5281Z" fill="url(#paint0_linear_1_6611)"/>
</g>
</g>
<defs>
<linearGradient id="paint0_linear_1_6611" x1="17.0702" y1="17.068" x2="34.108" y2="31.9215" gradientUnits="userSpaceOnUse">
<stop stop-color="#42E2A8"/>
<stop offset="0.984239" stop-color="#BDFF00"/>
</linearGradient>
<clipPath id="clip0_1_6611">
<rect width="30" height="30" fill="white"/>
</clipPath>
</defs>
</svg>
