<svg width="30" height="30" viewBox="0 0 30 30" fill="none" xmlns="http://www.w3.org/2000/svg">
<g id="fi_7466353">
<g id="Layer_1">
<path id="Vector" d="M22.8732 11.6934C22.7007 11.6672 22.5262 11.7109 22.3858 11.8131C21.7024 12.3111 20.909 12.6049 20.0709 12.6753C20.1533 12.4743 20.2195 12.2656 20.2759 12.0526C22.5492 11.7557 24.3202 9.79627 24.3202 7.4544C24.3202 4.89478 22.2366 2.8125 19.6757 2.8125C17.7857 2.8125 16.0949 3.97165 15.3885 5.68627C15.3837 5.68627 15.3792 5.68548 15.3747 5.68548C15.3721 5.68548 15.3694 5.68601 15.3665 5.68601C14.6579 3.97165 12.965 2.8125 11.0748 2.8125C8.51517 2.8125 6.43288 4.89478 6.43288 7.4544C6.43288 9.79548 8.20234 11.7549 10.4732 12.0523C10.5294 12.2653 10.5959 12.474 10.6782 12.6751C9.84067 12.6038 9.04574 12.3085 8.35994 11.8081C8.22167 11.7072 8.04923 11.664 7.87997 11.6868C4.8017 12.1069 2.63227 14.6641 2.82431 17.6404V19.7884C2.82431 19.9108 2.85822 20.0308 2.92232 20.1351C3.40097 20.9139 4.5347 21.499 6.2917 21.8786C6.29382 21.9356 6.29488 21.9923 6.29858 22.0495V24.4319C6.29858 24.5545 6.33249 24.6748 6.39712 24.7791C7.5727 26.6877 12.1934 27.1875 15.5066 27.1875C15.9832 27.1875 16.4332 27.1772 16.8414 27.1592C18.8013 27.0725 23.4644 26.6628 24.4323 24.728C24.4784 24.6361 24.5022 24.5346 24.5022 24.4316V22.0275C24.5022 21.9846 24.4972 21.9427 24.4964 21.9001C26.3477 21.5128 27.4955 20.9038 27.9063 20.0851C27.9527 19.9929 27.9768 19.8912 27.9768 19.7881V17.6184C27.9768 14.6731 25.7827 12.126 22.8732 11.6934ZM11.625 10.7602C11.625 8.69248 13.307 7.01018 15.375 7.01018C17.4427 7.01018 19.125 8.69248 19.125 10.7602C19.125 12.8279 17.4427 14.5102 15.375 14.5102C13.307 14.5102 11.625 12.8279 11.625 10.7602ZM19.6757 4.13721C21.5063 4.13721 22.9958 5.62535 22.9958 7.45466C22.9958 9.00929 21.9026 10.3274 20.4449 10.677C20.4076 8.39555 18.859 6.47908 16.758 5.88229C17.3261 4.82883 18.4413 4.13721 19.6757 4.13721ZM7.75759 7.45466C7.75759 5.62535 9.24573 4.13721 11.075 4.13721C12.3094 4.13721 13.4259 4.8283 13.9962 5.88123C11.8928 6.47643 10.3421 8.39396 10.3045 10.6768C8.84893 10.3263 7.75759 9.00876 7.75759 7.45466ZM23.1778 24.2459C22.6469 24.936 20.3604 25.6784 16.7829 25.836C12.564 26.0236 8.56099 25.3036 7.62276 24.2178V22.028C7.62276 22.0129 7.62223 21.9981 7.62117 21.9832C7.45244 19.4946 9.22189 17.3403 11.7712 16.8757C12.84 17.588 14.0797 17.963 15.3744 17.963C16.6634 17.963 17.8983 17.5911 18.9637 16.8847C21.3832 17.3678 23.1775 19.5349 23.1775 22.028L23.1778 24.2459ZM26.6523 19.5963C26.4025 19.897 25.6828 20.2861 24.3324 20.582C23.7401 17.998 21.6081 15.9319 18.907 15.5308C18.7356 15.5049 18.5605 15.5483 18.4204 15.6503C17.5312 16.2969 16.478 16.6386 15.375 16.6386C14.2685 16.6386 13.2127 16.295 12.3219 15.6447C12.1836 15.5438 12.0122 15.5006 11.8419 15.5237C9.00177 15.911 6.86677 17.9593 6.38759 20.5446C4.93441 20.2085 4.36464 19.7969 4.14902 19.5672V17.6184C4.14902 17.6033 4.14849 17.5882 4.14743 17.5731C3.99644 15.3714 5.55743 13.4629 7.81163 13.0393C8.78218 13.6801 9.90451 14.0175 11.075 14.0175C11.2088 14.0175 11.3431 14.0128 11.4764 14.0035C12.408 15.1213 13.8092 15.8347 15.3747 15.8347C16.9402 15.8347 18.3417 15.1213 19.2731 14.0035C19.4068 14.0128 19.5414 14.0175 19.6754 14.0175C20.8439 14.0175 21.9625 13.6832 22.9285 13.0478C25.0686 13.488 26.6521 15.4095 26.6521 17.6184L26.6523 19.5963Z" fill="url(#paint0_linear_1_6627)"/>
</g>
</g>
<defs>
<linearGradient id="paint0_linear_1_6627" x1="17.2469" y1="16.7923" x2="32.0699" y2="30.1333" gradientUnits="userSpaceOnUse">
<stop stop-color="#42E2A8"/>
<stop offset="0.984239" stop-color="#BDFF00"/>
</linearGradient>
</defs>
</svg>
