<svg width="216" height="63" viewBox="0 0 216 63" fill="none" xmlns="http://www.w3.org/2000/svg">
<g id="Group">
<path id="BG" d="M207.488 62.892H8.77001C4.4002 62.892 0.821289 59.4026 0.821289 55.142V8.642C0.821289 4.38144 4.4002 0.892002 8.77001 0.892002H207.488C211.858 0.892002 215.437 4.38144 215.437 8.642V55.142C215.437 59.4026 211.858 62.892 207.488 62.892Z" fill="white" fill-opacity="0.15"/>
<g id="Icon">
<path id="Vector" d="M16.2187 12.5773C15.7517 13.0539 15.4814 13.796 15.4814 14.757V49.0352C15.4814 49.9962 15.7517 50.7383 16.2187 51.2149L16.3339 51.3196L36.0348 32.1189V31.6656L16.3339 12.4649L16.2187 12.5773Z" fill="#D9D9D9"/>
<path id="Vector_2" d="M44.9791 38.5223L38.4194 32.1189V31.6655L44.9871 25.2621L45.1341 25.3454L52.9119 29.6602C55.1316 30.8847 55.1316 32.8997 52.9119 34.132L45.1341 38.439L44.9791 38.5223Z" fill="#D9D9D9"/>
<path id="Vector_3" d="M43.9417 39.6314L37.227 33.0846L17.4109 52.4073C18.1481 53.1629 19.3504 53.2539 20.7176 52.4983L43.9417 39.6314Z" fill="#D9D9D9"/>
<path id="Vector_4" d="M43.9417 24.153L20.7176 11.2861C19.3504 10.5382 18.1481 10.6293 17.4109 11.3849L37.227 30.6999L43.9417 24.153Z" fill="#D9D9D9"/>
</g>
<g id="GET IT ON">
<path id="G" d="M76.2033 16.7701C76.2033 18.0643 75.8059 19.1009 75.0229 19.874C74.1227 20.7904 72.9503 21.2515 71.5136 21.2515C70.1404 21.2515 68.968 20.7826 68.0062 19.8585C67.0424 18.9207 66.5615 17.7698 66.5615 16.3923C66.5615 15.0147 67.0424 13.8638 68.0062 12.9338C68.968 12.0019 70.1404 11.533 71.5136 11.533C72.1972 11.533 72.849 11.6706 73.4709 11.9263C74.0909 12.184 74.5957 12.5328 74.9613 12.9629L74.1307 13.7805C73.4928 13.0462 72.6244 12.6839 71.5136 12.6839C70.512 12.6839 69.6436 13.0249 68.9064 13.7127C68.1771 14.4025 67.8115 15.2956 67.8115 16.3923C67.8115 17.4889 68.1771 18.3898 68.9064 19.0796C69.6436 19.7596 70.512 20.1084 71.5136 20.1084C72.5767 20.1084 73.4709 19.7596 74.1764 19.0718C74.6414 18.6165 74.9057 17.9888 74.9752 17.1866H71.5136V16.0668H76.1318C76.1874 16.309 76.2033 16.5434 76.2033 16.7701Z" fill="#D9D9D9" stroke="#D9D9D9" stroke-width="0.190769" stroke-miterlimit="10"/>
<path id="E" d="M83.53 12.8873H79.1919V15.8323H83.1027V16.9522H79.1919V19.8972H83.53V21.0384H77.9639V11.7461H83.53V12.8873Z" fill="#D9D9D9" stroke="#D9D9D9" stroke-width="0.190769" stroke-miterlimit="10"/>
<path id="T" d="M88.7007 21.0383H87.4726V12.8873H84.8118V11.7461H91.3635V12.8873H88.7007V21.0383Z" fill="#D9D9D9" stroke="#D9D9D9" stroke-width="0.190769" stroke-miterlimit="10"/>
<path id="I" d="M96.105 21.0383V11.7461H97.3311V21.0383H96.105Z" fill="#D9D9D9" stroke="#D9D9D9" stroke-width="0.190769" stroke-miterlimit="10"/>
<path id="T_2" d="M102.766 21.0383H101.548V12.8873H98.8772V11.7461H105.437V12.8873H102.766V21.0383Z" fill="#D9D9D9" stroke="#D9D9D9" stroke-width="0.190769" stroke-miterlimit="10"/>
<path id="O" d="M117.841 19.843C116.901 20.7826 115.736 21.2515 114.347 21.2515C112.95 21.2515 111.786 20.7826 110.846 19.843C109.908 18.9052 109.441 17.7543 109.441 16.3923C109.441 15.0302 109.908 13.8793 110.846 12.9416C111.786 12.0019 112.95 11.533 114.347 11.533C115.728 11.533 116.893 12.0019 117.833 12.9493C118.779 13.8948 119.246 15.038 119.246 16.3923C119.246 17.7543 118.779 18.9052 117.841 19.843ZM111.754 19.0641C112.461 19.7596 113.322 20.1084 114.347 20.1084C115.365 20.1084 116.233 19.7596 116.933 19.0641C117.638 18.3685 117.996 17.4753 117.996 16.3923C117.996 15.3092 117.638 14.416 116.933 13.7205C116.233 13.0249 115.365 12.6761 114.347 12.6761C113.322 12.6761 112.461 13.0249 111.754 13.7205C111.049 14.416 110.691 15.3092 110.691 16.3923C110.691 17.4753 111.049 18.3685 111.754 19.0641Z" fill="#D9D9D9" stroke="#D9D9D9" stroke-width="0.190769" stroke-miterlimit="10"/>
<path id="N" d="M120.969 21.0383V11.7461H122.459L127.093 18.973H127.147L127.093 17.1866V11.7461H128.319V21.0383H127.04L122.187 13.455H122.133L122.187 15.2491V21.0383H120.969Z" fill="#D9D9D9" stroke="#D9D9D9" stroke-width="0.190769" stroke-miterlimit="10"/>
</g>
<g id="Google Play">
<path id="Google Play_2" d="M109.14 34.6084C105.406 34.6084 102.355 37.379 102.355 41.2017C102.355 44.9934 105.406 47.7931 109.14 47.7931C112.881 47.7931 115.932 44.9934 115.932 41.2017C115.932 37.379 112.881 34.6084 109.14 34.6084ZM109.14 45.1969C107.091 45.1969 105.328 43.548 105.328 41.2017C105.328 38.8244 107.091 37.2047 109.14 37.2047C111.188 37.2047 112.959 38.8244 112.959 41.2017C112.959 43.548 111.188 45.1969 109.14 45.1969ZM94.337 34.6084C90.5952 34.6084 87.5528 37.379 87.5528 41.2017C87.5528 44.9934 90.5952 47.7931 94.337 47.7931C98.0769 47.7931 101.121 44.9934 101.121 41.2017C101.121 37.379 98.0769 34.6084 94.337 34.6084ZM94.337 45.1969C92.2862 45.1969 90.5177 43.548 90.5177 41.2017C90.5177 38.8244 92.2862 37.2047 94.337 37.2047C96.3858 37.2047 98.1484 38.8244 98.1484 41.2017C98.1484 43.548 96.3858 45.1969 94.337 45.1969ZM76.7227 36.6292V39.4309H83.5844C83.3837 40.9964 82.8472 42.1472 82.0245 42.9494C81.0229 43.9181 79.463 44.9934 76.7227 44.9934C72.4999 44.9934 69.1932 41.6706 69.1932 37.5534C69.1932 33.4362 72.4999 30.1134 76.7227 30.1134C79.0059 30.1134 80.6672 30.9834 81.8933 32.111L83.9182 30.1367C82.2033 28.5402 79.922 27.3137 76.7227 27.3137C70.932 27.3137 66.0654 31.9075 66.0654 37.5534C66.0654 43.1993 70.932 47.7931 76.7227 47.7931C79.8525 47.7931 82.2033 46.7933 84.0514 44.9178C85.9452 43.0714 86.5354 40.4752 86.5354 38.3788C86.5354 37.7278 86.4797 37.1291 86.3804 36.6292H76.7227ZM148.75 38.8012C148.192 37.3267 146.469 34.6084 142.959 34.6084C139.482 34.6084 136.586 37.2802 136.586 41.2017C136.586 44.8946 139.452 47.7931 143.293 47.7931C146.399 47.7931 148.192 45.9467 148.929 44.8713L146.624 43.3737C145.855 44.4703 144.807 45.1969 143.293 45.1969C141.789 45.1969 140.71 44.5245 140.018 43.1993L149.062 39.551L148.75 38.8012ZM139.529 40.9964C139.452 38.4544 141.554 37.1524 143.061 37.1524C144.241 37.1524 145.243 37.7278 145.576 38.5512L139.529 40.9964ZM132.179 47.392H135.152V28.017H132.179V47.392ZM127.31 36.077H127.211C126.543 35.3059 125.269 34.6084 123.656 34.6084C120.27 34.6084 117.174 37.5069 117.174 41.223C117.174 44.9179 120.27 47.7931 123.656 47.7931C125.269 47.7931 126.543 47.0898 127.211 46.2954H127.31V47.2409C127.31 49.7616 125.929 51.1159 123.702 51.1159C121.885 51.1159 120.759 49.8372 120.294 48.7618L117.708 49.8139C118.453 51.5615 120.427 53.7122 123.702 53.7122C127.187 53.7122 130.128 51.7127 130.128 46.8476V35.0095H127.31V36.077ZM123.91 45.1969C121.861 45.1969 120.146 43.5248 120.146 41.223C120.146 38.9 121.861 37.2047 123.91 37.2047C125.929 37.2047 127.521 38.9 127.521 41.223C127.521 43.5248 125.929 45.1969 123.91 45.1969ZM162.668 28.017H155.558V47.392H158.523V40.0509H162.668C165.961 40.0509 169.19 37.7278 169.19 34.033C169.19 30.3401 165.953 28.017 162.668 28.017ZM162.746 37.3558H158.523V30.7121H162.746C164.959 30.7121 166.223 32.5043 166.223 34.033C166.223 35.5326 164.959 37.3558 162.746 37.3558ZM181.073 34.5716C178.931 34.5716 176.704 35.4939 175.788 37.5379L178.419 38.6132C178.985 37.5379 180.026 37.1892 181.127 37.1892C182.665 37.1892 184.225 38.0901 184.249 39.6808V39.8842C183.712 39.582 182.564 39.1344 181.151 39.1344C178.317 39.1344 175.43 40.6554 175.43 43.4938C175.43 46.09 177.751 47.7621 180.36 47.7621C182.355 47.7621 183.456 46.8844 184.148 45.8634H184.249V47.361H187.112V39.9288C187.112 36.4936 184.481 34.5716 181.073 34.5716ZM180.716 45.1891C179.746 45.1891 178.395 44.7202 178.395 43.548C178.395 42.0484 180.08 41.473 181.538 41.473C182.844 41.473 183.456 41.7539 184.249 42.124C184.016 43.9181 182.433 45.1891 180.716 45.1891ZM197.545 34.9959L194.137 43.395H194.036L190.512 34.9959H187.315L192.609 46.7333L189.588 53.2646H192.686L200.844 34.9959H197.545ZM170.82 47.392H173.792V28.017H170.82V47.392Z" fill="#D9D9D9"/>
</g>
</g>
</svg>
