<svg width="221" height="63" viewBox="0 0 221 63" fill="none" xmlns="http://www.w3.org/2000/svg">
<g id="Group">
<path id="BG" d="M220.821 56.6771C220.821 60.1107 217.982 62.892 214.47 62.892H6.62699C3.11681 62.892 0.267578 60.1107 0.267578 56.6771V7.11504C0.267578 3.68304 3.11681 0.891998 6.62699 0.891998H214.468C217.982 0.891998 220.819 3.68304 220.819 7.11504L220.821 56.6771Z" fill="white" fill-opacity="0.15"/>
<g id="Icon">
<g id="Vector">
<path d="M48.8031 31.544C48.7552 26.3525 53.1629 23.8267 53.3645 23.7092C50.8682 20.1606 46.999 19.6758 45.6393 19.6371C42.3897 19.3037 39.2375 21.533 37.5821 21.533C35.8937 21.533 33.3445 19.6693 30.5971 19.7241C27.0616 19.7772 23.7541 21.773 21.9402 24.8721C18.1965 31.1913 20.9886 40.4774 24.5752 45.5852C26.3694 48.0868 28.4659 50.8799 31.21 50.7816C33.8947 50.6737 34.8975 49.1128 38.1372 49.1128C41.3472 49.1128 42.2889 50.7816 45.0875 50.7188C47.9688 50.6737 49.7828 48.206 51.5142 45.6819C53.5875 42.8147 54.4202 39.991 54.4532 39.846C54.3855 39.8234 48.8576 37.7665 48.8031 31.544Z" fill="#D9D9D9"/>
<path d="M43.5164 16.277C44.9603 14.5164 45.9483 12.1212 45.674 9.69051C43.5841 9.78071 40.9705 11.0999 39.4655 12.8219C38.1339 14.3392 36.9444 16.8263 37.2517 19.1651C39.5993 19.3359 42.0097 18.0102 43.5164 16.277Z" fill="#D9D9D9"/>
</g>
</g>
<g id="Download on the">
<path id="D" d="M80.0644 15.7987C80.0644 17.6945 79.4812 19.1217 78.3164 20.0801C77.2376 20.9644 75.7045 21.4074 73.7187 21.4074C72.734 21.4074 71.8915 21.3655 71.186 21.2818V10.9228C72.1062 10.7778 73.0975 10.7037 74.1681 10.7037C76.0597 10.7037 77.4854 11.1048 78.447 11.907C79.5241 12.8139 80.0644 14.1105 80.0644 15.7987ZM78.2388 15.8454C78.2388 14.6163 77.9051 13.674 77.2376 13.0168C76.5702 12.3612 75.5955 12.0326 74.3118 12.0326C73.7666 12.0326 73.3024 12.0681 72.9174 12.1422V20.0173C73.1305 20.0495 73.5204 20.064 74.0871 20.064C75.4121 20.064 76.4347 19.7048 77.155 18.9864C77.8753 18.268 78.2388 17.221 78.2388 15.8454Z" fill="#D9D9D9"/>
<path id="o" d="M89.7441 17.4545C89.7441 18.6223 89.4022 19.5791 88.7182 20.3297C88.0012 21.1013 87.0512 21.4863 85.865 21.4863C84.7218 21.4863 83.8115 21.1174 83.1325 20.3764C82.4551 19.6371 82.1165 18.7044 82.1165 17.5801C82.1165 16.4042 82.465 15.4394 83.1655 14.6904C83.866 13.9413 84.8077 13.566 85.9939 13.566C87.1372 13.566 88.0557 13.9349 88.7512 14.6743C89.4121 15.3927 89.7441 16.3205 89.7441 17.4545ZM87.9483 17.5092C87.9483 16.8085 87.793 16.2077 87.4841 15.7068C87.1206 15.1011 86.6035 14.7983 85.9311 14.7983C85.2356 14.7983 84.7069 15.1011 84.3435 15.7068C84.0329 16.2077 83.8792 16.8182 83.8792 17.5398C83.8792 18.2405 84.0345 18.8413 84.3435 19.3423C84.7185 19.948 85.2406 20.2508 85.9146 20.2508C86.5754 20.2508 87.0942 19.9431 87.4676 19.3262C87.7881 18.8156 87.9483 18.2099 87.9483 17.5092Z" fill="#D9D9D9"/>
<path id="w" d="M102.723 13.7206L100.286 21.3138H98.7004L97.6909 18.0166C97.4349 17.1935 97.2267 16.3752 97.0648 15.5633H97.0334C96.8831 16.3977 96.6749 17.2144 96.4073 18.0166L95.3351 21.3138H93.7309L91.4395 13.7206H93.2187L94.0993 17.3304C94.3124 18.1841 94.4876 18.9975 94.628 19.7675H94.6594C94.7882 19.1328 95.0013 18.3242 95.302 17.3465L96.4073 13.7222H97.8182L98.8771 17.2692C99.1332 18.1342 99.3414 18.9669 99.5016 19.7691H99.5495C99.6668 18.9879 99.8436 18.1551 100.078 17.2692L101.023 13.7222H102.723V13.7206Z" fill="#D9D9D9"/>
<path id="n" d="M111.699 21.3138H109.967V16.9647C109.967 15.6245 109.445 14.9544 108.398 14.9544C107.884 14.9544 107.469 15.138 107.147 15.5069C106.828 15.8758 106.666 16.3107 106.666 16.8084V21.3122H104.935V15.8903C104.935 15.2234 104.914 14.5002 104.872 13.7173H106.394L106.475 14.9045H106.523C106.724 14.5356 107.025 14.2312 107.42 13.9879C107.889 13.7044 108.414 13.5611 108.989 13.5611C109.716 13.5611 110.321 13.7898 110.802 14.2489C111.4 14.8111 111.699 15.6503 111.699 16.7649V21.3138Z" fill="#D9D9D9"/>
<path id="l" d="M116.473 21.3139H114.743V10.2365H116.473V21.3139Z" fill="#D9D9D9"/>
<path id="o_2" d="M126.666 17.4545C126.666 18.6223 126.324 19.5791 125.64 20.3297C124.923 21.1013 123.971 21.4863 122.787 21.4863C121.642 21.4863 120.732 21.1174 120.054 20.3764C119.377 19.6371 119.038 18.7044 119.038 17.5801C119.038 16.4042 119.387 15.4394 120.087 14.6904C120.788 13.9413 121.73 13.566 122.914 13.566C124.059 13.566 124.976 13.9349 125.673 14.6743C126.334 15.3927 126.666 16.3205 126.666 17.4545ZM124.869 17.5092C124.869 16.8085 124.713 16.2077 124.404 15.7068C124.043 15.1011 123.524 14.7983 122.853 14.7983C122.156 14.7983 121.627 15.1011 121.265 15.7068C120.955 16.2077 120.801 16.8182 120.801 17.5398C120.801 18.2405 120.956 18.8413 121.265 19.3423C121.64 19.948 122.162 20.2508 122.836 20.2508C123.497 20.2508 124.014 19.9431 124.388 19.3262C124.71 18.8156 124.869 18.2099 124.869 17.5092Z" fill="#D9D9D9"/>
<path id="a" d="M135.046 21.3139H133.491L133.362 20.4392H133.314C132.782 21.1367 132.024 21.4863 131.039 21.4863C130.304 21.4863 129.709 21.2559 129.262 20.7985C128.855 20.3829 128.652 19.8658 128.652 19.2521C128.652 18.3243 129.049 17.6172 129.847 17.1275C130.643 16.6378 131.763 16.3978 133.205 16.4091V16.2673C133.205 15.267 132.667 14.7677 131.588 14.7677C130.82 14.7677 130.142 14.9561 129.557 15.3298L129.206 14.2216C129.929 13.7851 130.823 13.566 131.877 13.566C133.912 13.566 134.933 14.613 134.933 16.7071V19.5034C134.933 20.2621 134.971 20.8661 135.046 21.3139ZM133.248 18.7044V17.5334C131.338 17.5012 130.383 18.0118 130.383 19.0636C130.383 19.4599 130.493 19.7563 130.716 19.9544C130.939 20.1525 131.223 20.2508 131.561 20.2508C131.941 20.2508 132.297 20.1332 132.62 19.8996C132.946 19.6645 133.146 19.3665 133.22 19.0008C133.238 18.9187 133.248 18.8188 133.248 18.7044Z" fill="#D9D9D9"/>
<path id="d" d="M144.884 21.3139H143.347L143.266 20.0945H143.219C142.728 21.0223 141.892 21.4863 140.717 21.4863C139.779 21.4863 138.997 21.1271 138.378 20.4086C137.758 19.6902 137.449 18.7576 137.449 17.6123C137.449 16.3833 137.785 15.3878 138.459 14.6275C139.111 13.9188 139.911 13.5644 140.863 13.5644C141.908 13.5644 142.64 13.9075 143.057 14.5953H143.09V10.2365H144.823V19.2682C144.823 20.0076 144.843 20.6889 144.884 21.3139ZM143.09 18.1117V16.8456C143.09 16.6265 143.073 16.4493 143.042 16.314C142.944 15.9081 142.734 15.5666 142.416 15.2912C142.093 15.0157 141.705 14.8772 141.258 14.8772C140.612 14.8772 140.106 15.1269 139.734 15.6278C139.366 16.1288 139.179 16.7683 139.179 17.5495C139.179 18.3001 139.356 18.909 139.711 19.3777C140.086 19.8771 140.592 20.1268 141.224 20.1268C141.793 20.1268 142.247 19.919 142.592 19.5018C142.926 19.1168 143.09 18.6529 143.09 18.1117Z" fill="#D9D9D9"/>
<path id="o_3" d="M159.692 17.4545C159.692 18.6223 159.35 19.5791 158.666 20.3297C157.949 21.1013 157 21.4863 155.813 21.4863C154.671 21.4863 153.761 21.1174 153.08 20.3764C152.403 19.6371 152.064 18.7044 152.064 17.5801C152.064 16.4042 152.413 15.4394 153.113 14.6904C153.814 13.9413 154.755 13.566 155.943 13.566C157.085 13.566 158.005 13.9349 158.699 14.6743C159.36 15.3927 159.692 16.3205 159.692 17.4545ZM157.897 17.5092C157.897 16.8085 157.742 16.2077 157.433 15.7068C157.068 15.1011 156.553 14.7983 155.879 14.7983C155.185 14.7983 154.656 15.1011 154.291 15.7068C153.98 16.2077 153.827 16.8182 153.827 17.5398C153.827 18.2405 153.982 18.8413 154.291 19.3423C154.666 19.948 155.188 20.2508 155.862 20.2508C156.523 20.2508 157.043 19.9431 157.417 19.3262C157.736 18.8156 157.897 18.2099 157.897 17.5092Z" fill="#D9D9D9"/>
<path id="n_2" d="M169.001 21.3138H167.271V16.9647C167.271 15.6245 166.749 14.9544 165.7 14.9544C165.186 14.9544 164.772 15.138 164.451 15.5069C164.131 15.8758 163.97 16.3107 163.97 16.8084V21.3122H162.237V15.8903C162.237 15.2234 162.218 14.5002 162.176 13.7173H163.696L163.777 14.9045H163.825C164.028 14.5356 164.329 14.2312 164.722 13.9879C165.193 13.7044 165.717 13.5611 166.293 13.5611C167.019 13.5611 167.623 13.7898 168.104 14.2489C168.704 14.8111 169.001 15.6503 169.001 16.7649V21.3138Z" fill="#D9D9D9"/>
<path id="t" d="M180.653 14.9852H178.747V18.6739C178.747 19.6114 179.085 20.0801 179.756 20.0801C180.067 20.0801 180.324 20.0543 180.527 20.0012L180.572 21.2818C180.23 21.4074 179.781 21.4702 179.227 21.4702C178.543 21.4702 178.011 21.2673 177.626 20.8613C177.24 20.4554 177.048 19.7725 177.048 18.814V14.9852H175.91V13.7207H177.048V12.329L178.745 11.8297V13.7191H180.651V14.9852H180.653Z" fill="#D9D9D9"/>
<path id="h" d="M189.819 21.3139H188.086V16.997C188.086 15.6359 187.564 14.9545 186.518 14.9545C185.716 14.9545 185.167 15.3492 184.866 16.1385C184.815 16.3044 184.785 16.5073 184.785 16.7457V21.3123H183.056V10.2365H184.785V14.8128H184.818C185.364 13.98 186.145 13.5644 187.158 13.5644C187.875 13.5644 188.468 13.7931 188.939 14.2522C189.525 14.8241 189.819 15.6745 189.819 16.7989V21.3139Z" fill="#D9D9D9"/>
<path id="e" d="M199.274 17.158C199.274 17.4609 199.251 17.7154 199.21 17.9231H194.018C194.041 18.6738 194.288 19.2456 194.769 19.6419C195.209 19.9962 195.775 20.1734 196.469 20.1734C197.237 20.1734 197.938 20.0542 198.569 19.8142L198.84 20.9869C198.101 21.2993 197.232 21.4556 196.226 21.4556C195.02 21.4556 194.07 21.1093 193.383 20.4166C192.693 19.724 192.351 18.7946 192.351 17.6284C192.351 16.4831 192.669 15.5295 193.312 14.7692C193.983 13.9574 194.89 13.5515 196.035 13.5515C197.155 13.5515 198.006 13.9574 198.581 14.7692C199.045 15.4135 199.274 16.2109 199.274 17.158ZM197.622 16.7215C197.636 16.2205 197.522 15.7889 197.287 15.4248C196.986 14.9561 196.529 14.7209 195.909 14.7209C195.344 14.7209 194.883 14.9496 194.531 15.4087C194.244 15.7744 194.074 16.2109 194.018 16.7215H197.622Z" fill="#D9D9D9"/>
</g>
<g id="App Store">
<path id="A" d="M87.6554 50.4224H83.9035L81.8483 44.1258H74.7047L72.747 50.4224H69.0942L76.1718 28.986H80.5432L87.6554 50.4224ZM81.2288 41.4841L79.3702 35.8866C79.1736 35.3148 78.8052 33.9682 78.2617 31.8484H78.1956C77.9792 32.7601 77.6306 34.1067 77.1515 35.8866L75.3259 41.4841H81.2288Z" fill="#D9D9D9"/>
<path id="p" d="M105.857 42.5038C105.857 45.1326 105.128 47.2106 103.671 48.736C102.366 50.0939 100.745 50.772 98.8104 50.772C96.7221 50.772 95.222 50.0407 94.3084 48.5781H94.2424V56.7206H90.7201V40.0538C90.7201 38.4012 90.6755 36.705 90.5896 34.9654H93.6873L93.8839 37.4154H93.9499C95.1246 35.5694 96.9072 34.648 99.2994 34.648C101.17 34.648 102.731 35.3681 103.98 36.8097C105.232 38.253 105.857 40.1505 105.857 42.5038ZM102.268 42.6295C102.268 41.125 101.921 39.8847 101.224 38.9086C100.462 37.8906 99.4398 37.3815 98.1578 37.3815C97.2888 37.3815 96.4991 37.665 95.7937 38.224C95.0866 38.7878 94.624 39.5239 94.4076 40.4356C94.2985 40.8608 94.244 41.2088 94.244 41.4826V44.0599C94.244 45.1842 94.5976 46.1329 95.3047 46.9077C96.0117 47.6825 96.9303 48.0691 98.0603 48.0691C99.387 48.0691 100.42 47.5698 101.158 46.5743C101.898 45.5772 102.268 44.2628 102.268 42.6295Z" fill="#D9D9D9"/>
<path id="p_2" d="M124.091 42.5038C124.091 45.1326 123.362 47.2105 121.904 48.7359C120.6 50.0938 118.979 50.772 117.045 50.772C114.957 50.772 113.456 50.0407 112.545 48.5781H112.478V56.7206H108.956V40.0538C108.956 38.4012 108.912 36.705 108.826 34.9654H111.923L112.12 37.4154H112.186C113.359 35.5694 115.142 34.648 117.535 34.648C119.404 34.648 120.965 35.368 122.218 36.8097C123.465 38.253 124.091 40.1505 124.091 42.5038ZM120.503 42.6295C120.503 41.125 120.154 39.8847 119.457 38.9086C118.695 37.8905 117.676 37.3815 116.392 37.3815C115.522 37.3815 114.734 37.665 114.026 38.224C113.319 38.7877 112.858 39.5239 112.642 40.4356C112.535 40.8608 112.478 41.2088 112.478 41.4826V44.0598C112.478 45.1842 112.832 46.1329 113.536 46.9077C114.243 47.6809 115.161 48.0691 116.295 48.0691C117.621 48.0691 118.654 47.5697 119.392 46.5743C120.133 45.5772 120.503 44.2628 120.503 42.6295Z" fill="#D9D9D9"/>
<path id="S" d="M144.478 44.4109C144.478 46.2343 143.829 47.7179 142.526 48.8631C141.093 50.1147 139.099 50.7397 136.537 50.7397C134.171 50.7397 132.275 50.2951 130.839 49.4044L131.655 46.542C133.201 47.4537 134.898 47.9112 136.747 47.9112C138.073 47.9112 139.106 47.618 139.848 47.0349C140.586 46.4518 140.955 45.669 140.955 44.6928C140.955 43.823 140.651 43.0901 140.041 42.4957C139.435 41.9013 138.422 41.3488 137.008 40.8382C133.158 39.4384 131.235 37.3879 131.235 34.6915C131.235 32.9293 131.909 31.4844 133.259 30.3601C134.604 29.2341 136.398 28.672 138.642 28.672C140.642 28.672 142.304 29.0118 143.631 29.69L142.75 32.4895C141.511 31.8323 140.11 31.5037 138.543 31.5037C137.303 31.5037 136.335 31.8017 135.641 32.3945C135.055 32.9244 134.761 33.5704 134.761 34.3355C134.761 35.1827 135.096 35.8834 135.77 36.4343C136.357 36.9433 137.422 37.4942 138.969 38.0886C140.86 38.8312 142.25 39.6994 143.144 40.6948C144.034 41.6871 144.478 42.929 144.478 44.4109Z" fill="#D9D9D9"/>
<path id="t_2" d="M156.123 37.5425H152.24V45.0471C152.24 46.9559 152.924 47.9095 154.295 47.9095C154.925 47.9095 155.447 47.8563 155.86 47.75L155.957 50.3579C155.263 50.6108 154.35 50.738 153.218 50.738C151.827 50.738 150.74 50.3241 149.955 49.4977C149.174 48.6698 148.781 47.2813 148.781 45.3306V37.5393H146.468V34.962H148.781V32.1319L152.24 31.1138V34.962H156.123V37.5425Z" fill="#D9D9D9"/>
<path id="o_4" d="M173.64 42.5665C173.64 44.9424 172.943 46.8931 171.552 48.4185C170.093 49.989 168.157 50.7718 165.743 50.7718C163.417 50.7718 161.565 50.0196 160.184 48.5151C158.803 47.0107 158.112 45.1115 158.112 42.8226C158.112 40.4274 158.823 38.4655 160.248 36.94C161.671 35.413 163.591 34.6495 166.004 34.6495C168.33 34.6495 170.202 35.4017 171.615 36.9078C172.966 38.3688 173.64 40.255 173.64 42.5665ZM169.986 42.6776C169.986 41.2521 169.674 40.0295 169.041 39.0099C168.302 37.776 167.247 37.1607 165.879 37.1607C164.463 37.1607 163.387 37.7776 162.649 39.0099C162.016 40.0311 161.704 41.273 161.704 42.7421C161.704 44.1676 162.016 45.3902 162.649 46.4082C163.411 47.6421 164.474 48.2574 165.847 48.2574C167.192 48.2574 168.248 47.6292 169.009 46.376C169.659 45.3371 169.986 44.1016 169.986 42.6776Z" fill="#D9D9D9"/>
<path id="r" d="M185.089 37.9856C184.741 37.9228 184.369 37.8906 183.979 37.8906C182.74 37.8906 181.782 38.3464 181.108 39.2597C180.521 40.0651 180.227 41.0831 180.227 42.3122V50.4225H176.707L176.74 39.8332C176.74 38.0516 176.695 36.4296 176.607 34.967H179.675L179.804 37.9244H179.902C180.273 36.908 180.86 36.0897 181.663 35.476C182.448 34.9235 183.295 34.648 184.209 34.648C184.534 34.648 184.828 34.6706 185.089 34.7109V37.9856Z" fill="#D9D9D9"/>
<path id="e_2" d="M200.841 41.9625C200.841 42.5779 200.8 43.0965 200.713 43.5202H190.146C190.187 45.0472 190.698 46.215 191.679 47.0204C192.569 47.7404 193.721 48.1012 195.135 48.1012C196.7 48.1012 198.127 47.858 199.411 47.3699L199.963 49.7539C198.462 50.3918 196.691 50.7091 194.648 50.7091C192.189 50.7091 190.26 50.0036 188.856 48.5941C187.455 47.1847 186.752 45.292 186.752 42.9177C186.752 40.5869 187.405 38.6459 188.712 37.098C190.08 35.4453 191.928 34.619 194.255 34.619C196.539 34.619 198.269 35.4453 199.444 37.098C200.374 38.4108 200.841 40.0344 200.841 41.9625ZM197.483 41.0718C197.506 40.0538 197.276 39.1743 196.799 38.4317C196.189 37.4765 195.252 36.9997 193.992 36.9997C192.84 36.9997 191.904 37.4652 191.188 38.3995C190.602 39.1421 190.253 40.0328 190.146 41.0702H197.483V41.0718Z" fill="#D9D9D9"/>
</g>
</g>
</svg>
