<svg width="54" height="54" viewBox="0 0 54 54" fill="none" xmlns="http://www.w3.org/2000/svg">
<g id="fi_3522036">
<g id="Group">
<path id="Vector" d="M22.9955 49.7811V45.6876C20.0507 45.6876 17.6561 43.293 17.6561 40.3483C17.6561 37.4035 20.0507 35.0089 22.9955 35.0089V31.0044H15.5339L16.1688 29.2211C16.2705 28.9382 16.3213 28.6398 16.3213 28.3347C16.3213 26.863 15.1233 25.665 13.6516 25.665C12.1799 25.665 10.9819 26.863 10.9819 28.3347C10.9819 28.6398 11.0327 28.9382 11.1345 29.2211L11.7693 31.0044H4.21875C4.8811 40.9794 13.0205 49.1188 22.9955 49.7811Z" fill="#245946"/>
<path id="Vector_2" d="M13.6516 22.9954C16.5964 22.9954 18.991 25.39 18.991 28.3347H22.9955V20.8731L24.7787 21.508C26.4225 22.0933 28.3335 20.7663 28.3348 18.9908C28.3335 17.2141 26.4238 15.8767 24.7787 16.4737L22.9955 17.1085V9.7146C13.0205 10.3769 4.8811 18.3597 4.21875 28.3347H8.31226C8.31226 25.39 10.7069 22.9954 13.6516 22.9954Z" fill="#245946"/>
<path id="Vector_3" d="M44.2852 31.0044H40.3483C40.3483 33.9491 37.9537 36.3438 35.0089 36.3438C32.0642 36.3438 29.6696 33.9491 29.6696 31.0044H25.665V38.466L23.8818 37.8311C22.2315 37.238 20.3243 38.5715 20.3257 40.3483C20.3243 42.125 22.2328 43.4585 23.8818 42.8654L25.665 42.2306V49.7811C35.64 49.1188 43.6228 40.9794 44.2852 31.0044Z" fill="#245946"/>
<path id="Vector_4" d="M44.3528 14.9865V9.64709H39.0134C39.0134 6.70235 36.6188 4.21875 33.6741 4.21875C30.7293 4.21875 28.3347 6.70235 28.3347 9.64709H25.665V13.6516C28.6098 13.6516 31.0044 16.0462 31.0044 18.991C31.0044 21.9357 28.6098 24.3303 25.665 24.3303V28.3348H33.1266L32.4918 30.1181C32.39 30.401 32.3392 30.6995 32.3392 31.0045C32.3392 32.4762 33.5372 33.6742 35.0089 33.6742C36.4806 33.6742 37.6786 32.4762 37.6786 31.0045C37.6786 30.6995 37.6278 30.401 37.5261 30.1181L36.8912 28.3348H44.3528V25.6652C47.2975 25.6652 49.7811 23.2705 49.7811 20.3258C49.7811 17.3811 47.2975 14.9865 44.3528 14.9865Z" fill="#16A873"/>
</g>
</g>
</svg>
