<svg width="54" height="54" viewBox="0 0 54 54" fill="none" xmlns="http://www.w3.org/2000/svg">
<g id="fi_4832828">
<g id="Group">
<g id="Group 1000002438">
<path id="Vector" d="M8.28577 34.364L2.58535 40.0644C2.48948 40.1558 2.52532 40.3211 2.65895 40.3607L9.52442 42.4462C10.4984 42.7426 11.2573 43.5015 11.5535 44.4754L13.639 51.3408C13.6786 51.4745 13.844 51.5103 13.9353 51.4144L21.5626 43.7872C15.9193 42.3854 11.2604 38.8672 8.28577 34.364Z" fill="#245946"/>
<path id="Vector_2" d="M51.415 40.0644L45.7145 34.364C42.7611 38.835 38.1166 42.3765 32.4375 43.7873L40.0648 51.4145C40.1561 51.5104 40.3215 51.4746 40.3611 51.3409L42.4466 44.4755C42.7429 43.5015 43.5018 42.7426 44.4758 42.4463L51.3413 40.3608C51.4753 40.321 51.5106 40.1555 51.415 40.0644Z" fill="#245946"/>
<path id="Vector_3" d="M46.5243 22.0553C46.5243 11.2902 37.7663 2.53125 27.0002 2.53125C16.2341 2.53125 7.47607 11.2902 7.47607 22.0553C7.47607 31.789 14.6427 39.9016 23.9999 41.35C35.8528 43.1938 46.5243 33.968 46.5243 22.0553ZM11.781 26.8133C8.56112 16.519 16.3123 6.11262 27.0002 6.11262C38.9396 6.11262 46.8312 18.9444 41.0112 29.6606C34.2923 41.986 16.0097 40.2641 11.781 26.8133Z" fill="#245946"/>
<path id="Vector_4" d="M27.0001 8.97998C19.7906 8.97998 13.9238 14.8458 13.9238 22.0553C13.9238 32.6623 25.9497 38.848 34.5615 32.7172C36.4066 31.4076 37.9091 29.6171 38.8759 27.5253C42.8934 18.8765 36.4891 8.97998 27.0001 8.97998ZM33.5999 20.2212C33.4366 20.3424 25.4925 26.2386 25.4469 26.2724C24.8731 26.7001 24.0569 26.6427 23.5468 26.1023C19.8977 22.2134 20.1896 22.524 20.1021 22.432C19.4889 21.7791 19.6169 20.723 20.384 20.2376C20.385 20.2366 20.3859 20.2356 20.3869 20.2356C20.9566 19.8782 21.7165 19.9613 22.1934 20.4698C22.965 21.2922 22.4456 20.7387 24.7635 23.2082C25.0134 23.0219 27.9533 20.8409 31.9979 17.8394C32.6336 17.3672 33.532 17.5001 34.0032 18.1357C34.435 18.7153 34.4335 19.6036 33.5999 20.2212Z" fill="#16A873"/>
</g>
</g>
</g>
</svg>
