<svg width="54" height="54" viewBox="0 0 54 54" fill="none" xmlns="http://www.w3.org/2000/svg">
<g id="fi_8215621">
<path id="Vector" d="M38.774 34.488C38.4 31.9466 37.1275 29.6235 35.1873 27.9401C33.2471 26.2567 30.7677 25.3244 28.199 25.3125H25.805C23.2363 25.3244 20.757 26.2567 18.8168 27.9401C16.8766 29.6235 15.604 31.9466 15.23 34.488L14.0825 42.5115C14.0459 42.7709 14.0701 43.0352 14.1533 43.2836C14.2365 43.5319 14.3763 43.7575 14.5618 43.9425C15.0118 44.3925 17.7725 46.6875 27.0043 46.6875C36.236 46.6875 38.99 44.4015 39.4468 43.9425C39.6322 43.7575 39.7721 43.5319 39.8553 43.2836C39.9385 43.0352 39.9627 42.7709 39.926 42.5115L38.774 34.488Z" fill="#245946"/>
<path id="Vector_2" d="M17.0099 26.55C14.8354 28.5547 13.4205 31.2493 13.0049 34.1775L12.1724 39.9375C5.48991 39.8925 3.46491 37.4625 3.12741 36.9675C2.99695 36.7877 2.90386 36.5836 2.85362 36.3672C2.80338 36.1507 2.79702 35.9265 2.83491 35.7075L3.32991 32.9175C3.58781 31.4594 4.19351 30.085 5.09565 28.9108C5.99779 27.7366 7.16977 26.7972 8.51222 26.1724C9.85467 25.5475 11.328 25.2556 12.8073 25.3213C14.2866 25.3871 15.7282 25.8086 17.0099 26.55Z" fill="#245946"/>
<path id="Vector_3" d="M51.1652 35.7075C51.2031 35.9265 51.1968 36.1507 51.1465 36.3672C51.0963 36.5836 51.0032 36.7877 50.8727 36.9675C50.5352 37.4625 48.5102 39.8925 41.8277 39.9375L40.9952 34.1775C40.5797 31.2493 39.1648 28.5547 36.9902 26.55C38.272 25.8086 39.7136 25.3871 41.1929 25.3213C42.6722 25.2556 44.1455 25.5475 45.4879 26.1724C46.8304 26.7972 48.0024 27.7366 48.9045 28.9108C49.8066 30.085 50.4123 31.4594 50.6702 32.9175L51.1652 35.7075Z" fill="#245946"/>
<path id="Vector_4" d="M17.3925 21.6C16.8261 22.4032 16.0742 23.0579 15.2007 23.5084C14.3272 23.9589 13.3578 24.1918 12.375 24.1875C11.3946 24.1875 10.4282 23.9545 9.55548 23.5078C8.68276 23.061 7.9287 22.4133 7.35544 21.6179C6.78218 20.8225 6.40612 19.9023 6.25827 18.9331C6.11041 17.9639 6.19499 16.9735 6.50502 16.0433C6.81506 15.1132 7.34168 14.2701 8.04149 13.5835C8.7413 12.8968 9.59426 12.3863 10.5301 12.0939C11.4659 11.8016 12.4578 11.7359 13.424 11.9021C14.3903 12.0683 15.3032 12.4617 16.0875 13.05C15.8619 13.9322 15.7485 14.8394 15.75 15.75C15.7517 17.8136 16.3199 19.8371 17.3925 21.6Z" fill="#16A873"/>
<path id="Vector_5" d="M47.8124 18C47.813 18.8127 47.6534 19.6176 47.3426 20.3686C47.0319 21.1195 46.5761 21.8019 46.0015 22.3765C45.4268 22.9512 44.7444 23.407 43.9935 23.7177C43.2425 24.0285 42.4376 24.1881 41.6249 24.1875C40.6421 24.1918 39.6727 23.9589 38.7992 23.5084C37.9257 23.0579 37.1738 22.4032 36.6074 21.6C37.6801 19.8371 38.2482 17.8136 38.2499 15.75C38.2514 14.8394 38.138 13.9322 37.9124 13.05C38.8317 12.3605 39.9248 11.9407 41.0692 11.8375C42.2137 11.7343 43.3643 11.9518 44.3921 12.4657C45.4198 12.9796 46.2842 13.7696 46.8883 14.747C47.4924 15.7245 47.8124 16.8509 47.8124 18Z" fill="#16A873"/>
<path id="Vector_6" d="M27 24.1875C31.6599 24.1875 35.4375 20.4099 35.4375 15.75C35.4375 11.0901 31.6599 7.3125 27 7.3125C22.3401 7.3125 18.5625 11.0901 18.5625 15.75C18.5625 20.4099 22.3401 24.1875 27 24.1875Z" fill="#16A873"/>
</g>
</svg>
